/* XPM */
static char *result[] = {
/* columns rows colors chars-per-pixel */
"64 64 192 2 ",
"   c #3D515E",
".  c #264A6D",
"X  c #294E6D",
"o  c #275465",
"O  c #295566",
"+  c #2C5D65",
"@  c #275768",
"#  c #2B556B",
"$  c #265D6C",
"%  c #2C5C6C",
"&  c #355663",
"*  c #345B65",
"=  c #3B5B66",
"-  c #335D6C",
";  c #3A5E6A",
":  c #274A73",
">  c #294C74",
",  c #2A4E79",
"<  c #2C5474",
"1  c #2D5D73",
"2  c #2B537A",
"3  c #2E5B7B",
"4  c #325E73",
"5  c #315E7B",
"6  c #2E6067",
"7  c #26626E",
"8  c #2A626D",
"9  c #386267",
"0  c #35626C",
"q  c #3C626C",
"w  c #366A6F",
"e  c #3A6C6F",
"r  c #256573",
"t  c #2C6372",
"y  c #266876",
"u  c #2C6975",
"i  c #2D6679",
"p  c #276A78",
"a  c #2C6B7A",
"s  c #336474",
"d  c #3A6573",
"f  c #336B74",
"g  c #3B6C74",
"h  c #33647B",
"j  c #386778",
"k  c #346B7B",
"l  c #3B6C7B",
"z  c #3F7073",
"x  c #35717D",
"c  c #3C727D",
"v  c #425C66",
"b  c #485B67",
"n  c #445E69",
"m  c #4B5E6A",
"M  c #43626C",
"N  c #4E616D",
"B  c #47686F",
"V  c #4B6A6E",
"C  c #50636E",
"Z  c #426672",
"A  c #4C6671",
"S  c #436B75",
"D  c #4C6B73",
"F  c #426D7A",
"G  c #4C6E79",
"H  c #526672",
"J  c #536B75",
"K  c #556D7A",
"L  c #5A6F7F",
"P  c #447074",
"I  c #4D7276",
"U  c #43727D",
"Y  c #4C727C",
"T  c #547276",
"R  c #587277",
"E  c #54747B",
"W  c #59757B",
"Q  c #55797F",
"!  c #59797D",
"~  c #326581",
"^  c #356C81",
"/  c #396E81",
"(  c #357182",
")  c #3C7383",
"_  c #3C7886",
"`  c #3C7689",
"'  c #3E788C",
"]  c #447583",
"[  c #4B7583",
"{  c #457985",
"}  c #4C7A85",
"|  c #447689",
" . c #4D768A",
".. c #437B8C",
"X. c #4B7C8B",
"o. c #537581",
"O. c #5A7680",
"+. c #557B85",
"@. c #5A7B84",
"#. c #527788",
"$. c #537D8A",
"%. c #5B7E8A",
"&. c #457D92",
"*. c #4B7D95",
"=. c #4F7E99",
"-. c #527B94",
";. c #607F87",
":. c #46818E",
">. c #4B828C",
",. c #5D8186",
"<. c #55818C",
"1. c #5C828B",
"2. c #468191",
"3. c #4B8493",
"4. c #4E8996",
"5. c #4E8499",
"6. c #4E8B99",
"7. c #548393",
"8. c #5C8492",
"9. c #548B95",
"0. c #5C8994",
"q. c #548799",
"w. c #548D9B",
"e. c #5C8D9C",
"r. c #55929D",
"t. c #5B939D",
"y. c #61848D",
"u. c #628A8F",
"i. c #628690",
"p. c #638C94",
"a. c #63879A",
"s. c #618A99",
"d. c #6A8E9B",
"f. c #669197",
"g. c #65939B",
"h. c #69959C",
"j. c #6B989E",
"k. c #568DA0",
"l. c #5594A1",
"z. c #5A95A2",
"x. c #5B99A4",
"c. c #5D97A8",
"v. c #5C9DA9",
"b. c #628FA0",
"n. c #698CA2",
"m. c #6495A3",
"M. c #6B95A1",
"N. c #639BA5",
"B. c #6D9CA3",
"V. c #6097A9",
"C. c #639DAB",
"Z. c #699FAB",
"A. c #709FA6",
"S. c #719EA8",
"D. c #769AB6",
"F. c #769EB9",
"G. c #6EA0A6",
"H. c #63A4AD",
"J. c #6AA3AC",
"K. c #66A8AF",
"L. c #6CA8AE",
"P. c #71A1A7",
"I. c #72A4AA",
"U. c #75A9AE",
"Y. c #65A5B1",
"T. c #6AA4B2",
"R. c #66AAB3",
"E. c #6AACB5",
"W. c #6CAEB9",
"Q. c #75ACB2",
"!. c #78AEB3",
"~. c #71ADBA",
"^. c #6FB0B6",
"/. c #6DB3BB",
"(. c #71B0B6",
"). c #7AB2B6",
"_. c #73B4BC",
"`. c #7BB6BA",
"'. c #71B8BF",
"]. c #7DBABE",
"[. c #74B6C1",
"{. c #73BAC2",
"}. c #7CBDC2",
"|. c #7ABFC8",
" X c #7EC0C6",
".X c #7CC3CB",
"XX c #80BBBF",
"oX c #80BDC2",
"OX c #83C2C7",
"+X c #84C3C9",
"@X c #92E9EF",
"#X c None",
/* pixels */
"#X#X  #X#X#X#X#X#X#X#X#X#X#X#X#X#X#X#XC N C N H L L y.M.!.`.XXXXXXXXXXoXXX).G.u.O.K H C C #X#X#X#X#X#X#X#X#X#X#X#X#X#X#X#Xb #X#X",
"#X#X#X#X#XT #X#X#X#X#X#X#X#X#X#X#X#XC H N H H H R ;.i.M.U.).).).!.!.XXXX`.!.B.u.O.K K C H N #X#X#X#X#X#X#X#X#X#X#X#XW #X#X#X#X#X",
"#X#X#X#X#XD.#X#X#X#X#X#X#X#X#X#X#XC #XN J J H L J O.;.d.S.U.Q.).!.XX!.).U.S.h.y.O.J K J N #XC #X#X#X#X#X#X#X#X#X#X#XD.#X#X#X#X#X",
"#X#X#XR D.@XD.W #X#X#X#X#X#X#XN N C H N L N H H J R ! y.f.j.j.j.B.B.j.P.B.h.y.! O.K H K C H N B N #X#X#X#X#X#X#XW D.@XD.W #X#X#X",
"#X#X#X#X#XD.#X#X#X#X#X#X#XC m C C L C H J N H A H J E O.@.i.p.p.f.f.f.0.p.1.@.W K K H H J B K M M B M #X#X#X#X#X#X#XD.#X#X#X#X#X",
"#X#X#X#X#XW #X#XC #XC #XC N N N m C N J N H A N A A D K Q O.%.,.<.<.<.<.+.+.+.O.E K K V K M M M M M M M #XN #XN #X#X! #X#X#X#X#X",
"#X#X#X#X#X#X#X#X#XC #XC N N N N m C C N A A A B A S D G E E Y [ I Y } Q } <.<.%.@.O.E D Z Z q q 0 q q M M #XB #X#X#X#X#X#X#X#X#X",
"#X#X#X#X#X#X#X#XC #XN N N N N N N J N N H A D S S Y P Y G G G G P U U U } <.1.0.i.%.#.Y G Z g 0 q 0 q q q M #XN #X#X#X#X#X#X#X#X",
"#XN #X#X#X#X#X#X#XC N N m m m m m N V H D D I G U U l G D F A S P U c U >.9.t.j.g.0.1.<.U S g 0 - 9 0 0 q q M #X#X#X#X#X#X#XN #X",
"#X#X#X#X#X#XC m C N N N C m m C m D J D T Y Y U U U g S Z Z Z Z g c U :.>.t.J.L.H.h.0.Q Y U g d w 0 9 9 9 q q M N N #X#X#X#X#X#X",
"#X#X#X#X#XC N C N m m C J J J C J K E E E } [ ] c g g d d d Z d z c U >.r.v.E.^.K.G.t.<.Y U g g 0 w w 0 * q 9 M M N m #X#X#X#X#X",
"#X#X#X#X#XC C N m R R R R R R W ! +.+.+.$.#.} U c g g d d d Z d g z { >.r.J.(._.(.J.0.<.U U c d g w e e e g P 9 n M N #X#X#X#X#X",
"#X#X#X#X#XN N C J R E T W ! Q +.%.1.8.8.7.$.[ F l l d d d ; d Z g S ] <.t.K.^.^.L.N.0.$.] U S g w w w w e e z P ; n m #X#X#X#X#X",
"#X#X#X#XC C C W W R E ! ! Q 1.0.s.n.m.e.q.$. .] F g d d d ; ; ; d g ] X.9.x.J.J.N.t.7.} U F g g d w w w w w e z P M n m #X#X#X#X",
"#X#X#X#XC ! ! R R Q ! ! %.1.p.m.m.Z.Z.m.e.q.X.] F j f d d - - - - j F [ <.t.t.t.e.<.{ F F g l l f f w f w w e e P P I B #X#X#X#X",
"#X#X#XN R ! W R ! W @.%.8.s.m.J.~.~.W.T.N.q.X.] ] l s d ; - 4 - ; d d F ] { X.X.{ [ U l d j j l c x x x c f g g P P I T m #X#X#X",
"#X#XC R W ! ! R %.%.%.-.a.M.Z.~.[.}.[.[.C.k.5.| ] j j s 4 - - - % - s d j l l F l j d 0 4 d j l c ( ) ) x c c z z z I T T N #X#X",
"#XN N R R R ! @.%.%.a.0.n.C.T.[.|.|.|.[.T.k.7.| / j h s t % 8 1 % + % 0 - d d 0 - - - - ; 4 s j l ( ) ) _ x c c U z P I T V N #X",
"m N C W R W W @.8.0.8.e.k.m.T._.|.|.|.[.T.l.5.| ) / i p t 1 7 $ 1 % % # % - - + - O # - - 1 4 j k k k x x x x x c z P I I N N N ",
"C W W R R E @.%.%.8.8.8.s.c.C.W.[.|.|.W.C.l.2.| ( k a p u r r $ $ $ % % # # # O O O O # # - t s k k k k a f w w e e P P T R W N ",
"W W ! O.W O.O.%.8.-.8.7.q.t.c.H.R.W.R.H.c.6.&.' ( ^ p p p r r r 7 7 7 @ + @ O O O O o O # % s s s k a k u f f w e e P P I ! R ! ",
"O.%.;.%.%.%.i.8.8.8.7.7.7.q.w.z.v.v.v.l.6.2.' ` ( p ^ p r y r $ r 7 7 $ @ @ @ O O O O O # - s s s f k i f u f f c e P P I T R ! ",
";.;.;.%.i.a.8.0.0.7.7.3.X.>.7.5.5.6.6.5.2...' ( ( ( ~ p p r r r $ r 7 $ # @ o o o o o O # 8 s h k k k f f x u x w c z >.I I W ! ",
"i.i.i.1.i.8.0.8.<.<.$.X. . .| ....&.&...' ' ` ( ^ ^ p p ~ p p r r r $ $ # O o o o o O O # 1 s k ^ l k k a f f w x w U P I T T ! ",
"M.y.;.y.y.8.1.%.$.$. .{ ] F ] ] | ` | ) / ) / / / ^ a a a p r r r $ $ $ $ @ @ # O O O # % s f ^ / ) ) k k i f f f z P } I E ! ~.",
"A.d.i.%.@.%.1.$.#. .[ U F l j j l k l k / / ^ ^ ^ ^ a ^ i p a r r r r 1 # % # @ @ @ + t j k ) ` ` _ ) k k f u k x c U } T +.,.y.",
"I.h.p.y.%.%.#.o.[ G F F d j d j s j h h j ~ j ~ ^ ^ ^ ^ ^ a i p p r t 1 t % % % % s d k ) _ ..2.2..._ c f t t f c g U } Q Q @.y.",
"`.B.d.i.1.O.#.[ G F S d 0 4 - 4 4 4 5 5 5 5 ~ ~ ~ ^ ^ ^ a ^ k ^ ~ ^ ^ k j s t s s l _ ' >.3.6.w.w.6.2.{ f d 0 0 w S G $.Q y.h.B.",
"oX!.B.p.y.%.E Y F S d 0 - - - # # < < < 5 5 2 ~ ~ ^ ~ ( ( ( ( ( ` _ _ _ ) ) l k c ..4.r.l.v.v.v.v.v.r.:.c d - - 0 B U +.1.h.G.U.",
"OX).S.h.i.+.[ G F j d 8 - - # # X # < < 2 2 ~ 2 i ~ ~ ^ ^ ( ' ' 2.4.4.4.3.>.....:.4.t.H.R.R.R.R.E.R.v.r.} g - * ; q Y ,.f.G.(.].",
"OX).I.j.0.$.E U g d w w % % # # X . > > < , 2 ~ ~ ~ ~ ~ ` ` &.6.l.x.v.v.v.r.9.3.4.r.H.^.'./././.'.'.R.x.>.l - ; * q Y <.h.U.`.].",
"oX!.I.M.s.1.} U l j t s 8 % % # X . > > , , 2 2 ~ , ~ ~ ` &.6.x.v.R./.E.R.H.x.r.r.x.R.'.'.'./.'.'.'.^.t.>.F 0 * ; M Y 1.j.!.].].",
"oX!.P.h.f.<.>.U c f f u t 1 1 # # : : : , , , 2 , ~ ~ ^ ' 2.l.R./.{.{.{./.W.v.l.r.x.H./././././././.K.r.} S ; & & Z G 1.B.).].}.",
"+X!.P.h.p.1.$.U c x u u s s 1 < < > , > , , , 2 2 3 ~ / ' 6.v.E.{.{.{.{.{./.R.x.w.r.v.H.R.R.H.K.K.H.t.4.] d * & = ; G %.m.Q.].XX",
"OX!.A.f.0.0.} ] U c f x f h s 4 < < < , , 2 , 2 2 5 h ^ ' 4.v.E.{.{.{.{.'./.v.l.4.4.r.r.x.t.x.x.r.r.4.{ g - & & = n D %.g.I.).`.",
"oXI.B.u.0.8.<.X.{ c c k k k h h 3 3 3 2 2 2 2 < < 3 i k _ 3.x.Y./.{././.E.H.x.6.:.....2.3.4.3.:.>.:.] z j - & & = ; S o.0.B.I.I.",
").j.p.y.s.8.$.} { ] ) c l l k h h h 5 5 3 3 2 3 1 1 3 k ) ..6.v.Y.R.E.R.v.l.6.:.) / ) ) _ { ] ) c c g j 0 - 4 ; q M D G @.p.g.j.",
"S.u.y.y.%.i.%.$.{ } ] ) / l / l k h ~ h i 3 1 t 1 i t s k ) ..9.l.x.x.l.r.4...c l k j k k k k k l f s s d 4 ; ; Z M Z T T O.@.,.",
"j.;.W W %.8.1.#.X.} { { ) ) / l / ^ ^ ^ h i i 1 1 t t t f k ) ' :.3.3.:...| x f s s s s s f k j k h j s d d d d Z Z S Y E T ,.,.",
"D.;.! ! ;.8.$.8.$.X. .{ | | ) ) ` ( / / ^ ^ i p u t t 1 t s f l c ) c x c k s i % i t i s k s k j f j j j l j S F G D E T T ! F.",
"u.d.! R W d.1.%.7.$.X.X.....| ` ` ` ( ( ( ^ a p u y r t 8 u t s f s h s j t s t s t s s k i k k ^ l / / / F ] ] [ D D o.T T T Q ",
"y.! W W y.! 8.1.8.<.-.X.&.X.....' ` ` ( ( ( ^ p p u r r r t t 8 t t 8 t % 1 % % 1 t i s k k ^ / / ) / ] ] ] ] [ [ o.Y +.T T T E ",
"y.! W R R n.%.%.<.7.7.7.*.>.*.&.&.' ` ` ( ( p a a p y y r r t t t % % 1 % t % 1 s t s h k ( / ` ` ..| ..| | ] Y G Y E %.I Q I E ",
";.W W R @.T 8.1.8.7.-.q.q.q.5.3.&.&.' ( ( p ^ p p y y y r r 8 r t t % % % 8 1 8 t i h k ^ / ` ' | &.| &.{  .U G D G o.D I I I P ",
"J W W W E %.! %.$.8.7.q.k.w.k.k.6.2.2._ ( p p p p y y y y r y 7 7 1 t % % 1 1 1 1 s s k ) ` ' ' &.&.&.*. . .G D I V D I I I I e ",
"H N J R R T @.+.1.+.7.0.z.V.c.c.l.r.2.' ( p a p p y y y y y r y r 8 % 8 % 8 % t t t i k ^ ` &.*.*.5.=.*.-. . .G I V T I I q q e ",
"#XC N D R T T o.+.%.8.s.m.Z.T.T.Y.c.6.:._ x a a u y y y y 7 8 8 8 $ % % % 8 8 1 t r h k ^ ( | &.*.=.=.=.-.#.#.Y o.J I T I M q #X",
"#X#XN J R R J ! %.%.s.m.T.~._._.W.Y.v.r.:._ x x a u u u 7 y y u t t t 8 7 r t r t t i u k k / / | ]  . .[ o.E E ! I I T Y q #X#X",
"#X#X#XC ! R R Q ,.1.0.j.(.].{.{.].^.K.t.9.:.c x f u u u u r t 8 8 t t 8 8 7 7 7 y 7 y y u f t d 4 S F A V V D W T T T I M #X#X#X",
"#X#X#X#XN R R W 1.,.f.G.).]. X X{.'.^.K.x.9.>.c c x f u u t s t s 0 8 8 7 7 7 7 8 8 8 7 8 8 6 0 ; M M Z V V D C V T T N #X#X#X#X",
"#X#X#X#XN N J ! ! 1.f.B.(.]. X X}.}.).^.J.t.9.>.c l f d s s s d - 1 0 8 8 7 7 7 8 7 7 6 8 6 6 9 9 M M V V V N C T b N N #X#X#X#X",
"#X#X#X#X#XN C H ! ! 0.h.U.`.].}.}.}.]._.(.L.G.9.} F g g 0 d - 4 0 - 8 8 8 8 7 6 7 6 7 6 8 6 6 * = = M V V C H R m N N #X#X#X#X#X",
"#X#X#X#X#XN N C T @.,.f.B.U.`.].}.}.].].].).L.t.<.U S q ; - * ; ; - - + 8 % 6 7 6 6 6 + + 6 + = =   v M N V R b m N N #X#X#X#X#X",
"#X#X#X#X#XC N N V R ! y.h.G.Q.).].`.].}.}.`.E.h.<.Y M ; ; n = = * ; ; * + + + 6 6 6 + + O & * *   M b b b N N N N N C #X#X#X#X#X",
"#X#X#X#X#X#XN C C H R ! u.f.B.L.(.).`.].}._.U.h.1.[ D n v = v v n ; ; = = ; 9 6   + + + & & = = M b b b N m m C C N #X#X#X#X#X#X",
"#XC #X#X#X#X#X#X#XC C T W ,.u.j.G.U.Q.).).Q.Z.d.,.T D V B m M B M M M M q q 9 9 9 9 6   ; = v n M M b N N N N #X#X#X#X#X#X#XC #X",
"#X#X#X#X#X#X#X#XC #XC H J W %.u.p.j.A.S.P.A.g.y.+.E J J J D J K K Y T G D A Z M n Z = n n n m n m m N N N C #XC #X#X#X#X#X#X#X#X",
"#X#X#X#X#X#X#X#X#XN #XC H J W @.;.y.p.d.h.u.y.;.E E T W Q %.%.y.1.1.1.@.+.o.G A A m A n n n m m m N N N C #XC #X#X#X#X#X#X#X#X#X",
"#X#X#X#X#X! #X#XC #XN #XC H J K R ;.;.y.@.;.O.W K E W @.y.f.h.M.B.j.B.j.d.y.@.E J C K m O.m m N N N C N #XN #XC #X#XW #X#X#X#X#X",
"#X#X#X#X#XD.#X#X#X#X#X#X#XN H H J R L L ! K W K K W @.u.h.P.I.U.!.!.Q.U.I.h.p.@.K K C H J m O.N m C C #X#X#X#X#X#X#XD.#X#X#X#X#X",
"#X#X#XW D.@XD.W #X#X#X#X#X#X#XH H H R H L J K J K O.;.d.S.!.XX).`.`.XXXX).I.M.y.;.K H K C H C C N #X#X#X#X#X#X#X! D.@XD.! #X#X#X",
"#X#X#X#X#XD.#X#X#X#X#X#X#X#X#X#XC C J H R K C L K O.i.A.U.XXXXXXXXXXoXoX].!.B.p.;.H K K C #XN #X#X#X#X#X#X#X#X#X#X#XD.#X#X#X#X#X",
"#X#X#X#X#XW #X#X#X#X#X#X#X#X#X#X#XC C J C H H H L W y.M.Q.oXXXoXoXoXoXoXoX).P.p.;.H K C H C #X#X#X#X#X#X#X#X#X#X#X#XW #X#X#X#X#X",
"#X#XN #X#X#X#X#X#X#X#X#X#X#X#X#X#X#X#XC N N C H J W i.M.I.`.XXXXoXoXoXoXXX!.A.p.;.R H H C #X#X#X#X#X#X#X#X#X#X#X#X#X#X#X#XC #X#X"
};
