/* XPM */
static char *result[] = {
/* columns rows colors chars-per-pixel */
"62 62 139 2 ",
"   c #1D363D",
".  c #233B42",
"X  c #293F46",
"o  c #30444B",
"O  c #2E4D50",
"+  c #324B50",
"@  c #364850",
"#  c #3C4D54",
"$  c #324C5A",
"%  c #345155",
"&  c #3B565A",
"*  c #37585A",
"=  c #2E5065",
"-  c #345569",
";  c #375D79",
":  c #3F6464",
">  c #425159",
",  c #49565E",
"<  c #475F63",
"1  c #4F5A62",
"2  c #555F67",
"3  c #486F6D",
"4  c #506B6D",
"5  c #5A6D71",
"6  c #5C7476",
"7  c #507B77",
"8  c #577F7C",
"9  c #5E7B7B",
"0  c #606F75",
"q  c #616E76",
"w  c #6D7773",
"e  c #6A737A",
"r  c #6C797F",
"t  c #7D7D7C",
"y  c #436682",
"u  c #5A7085",
"i  c #50708B",
"p  c #4C7496",
"a  c #5C7995",
"s  c #587D9F",
"d  c #667C80",
"f  c #747C83",
"g  c #598681",
"h  c #5D8480",
"j  c #618080",
"k  c #618180",
"l  c #6F8084",
"z  c #638885",
"x  c #658F8A",
"c  c #718789",
"v  c #70848B",
"b  c #7F868D",
"n  c #738E8E",
"m  c #68968F",
"M  c #7A8C95",
"N  c #659194",
"B  c #6A9D94",
"V  c #7E9897",
"C  c #789C98",
"Z  c #72A098",
"A  c #71A39B",
"S  c #74A59E",
"D  c #7AA39D",
"F  c #5E81A4",
"G  c #5789B9",
"H  c #5D8EBE",
"J  c #618AB3",
"K  c #7EADA9",
"L  c #6392C2",
"P  c #659BD2",
"I  c #6AA5C7",
"U  c #68A3E1",
"Y  c #6AACF0",
"T  c #818888",
"R  c #9E898E",
"E  c #80998E",
"W  c #818C92",
"Q  c #879196",
"!  c #839497",
"~  c #899096",
"^  c #869B9C",
"/  c #8B9BA2",
"(  c #949AA0",
")  c #81A5A1",
"_  c #82A6A1",
"`  c #84ABA7",
"'  c #8AA9A6",
"]  c #89A1A9",
"[  c #83A8A9",
"{  c #96A1A5",
"}  c #9EA3A9",
"|  c #93ABAA",
" . c #9BAEAF",
".. c #86B0AD",
"X. c #84B2AF",
"o. c #8CABB5",
"O. c #88B5B3",
"+. c #94B1B0",
"@. c #9EB0B1",
"#. c #9BB0B9",
"$. c #98B0BA",
"%. c #9EB9BA",
"&. c #98BBBC",
"*. c #A2A9AE",
"=. c #A9ADB3",
"-. c #A9AEB3",
";. c #A3B1B3",
":. c #A4B2B4",
">. c #A8B3B6",
",. c #A8B9B7",
"<. c #A5B6B9",
"1. c #ABB4B8",
"2. c #A7BCBF",
"3. c #B3B7BC",
"4. c #9FB9C3",
"5. c #A6B8C1",
"6. c #A1B4C9",
"7. c #B5BCC2",
"8. c #88BFF0",
"9. c #99C3C4",
"0. c #9CC6C8",
"q. c #A8C1C5",
"w. c #A9C3CC",
"e. c #B7C1C8",
"r. c #B9C7CE",
"t. c #B2C9CF",
"y. c #A6CED2",
"u. c #ABC8D2",
"i. c #B4CDD6",
"p. c #BBCCD4",
"a. c #AED1D6",
"s. c #B6D3DB",
"d. c #B0D6DC",
"f. c #BCD1D9",
"g. c #BED6DF",
"h. c #C0DCE5",
"j. c #C2E1EB",
"k. c #C4E6F1",
"l. c None",
/* pixels */
"l.l.l.l.l.l.l.l.l.l.l.l.l.l.l.l.l.l.l.l.l.l.l.l.l.l.l.l.l.l.l.l.l.l.l.l.l.l.l.l.l.l.l.l.l.l.l.l.l.l.l.l.l.l.l.l.l.l.l.l.l.l.",
"l.l.l.l.l.l.l.l.l.l.l.l.l.l.l.l.l.l.l.l.l.l.l.l.l.l.l.l.l.l.l.l.l.l.l.l.l.l.l.l.l.l.l.l.l.l.l.l.l.l.l.l.l.l.l.l.l.l.l.l.l.l.",
"l.l.l.l.l.l.l.l.l.l.l.l.l.l.l.l.l.l.l.l.l.l.l.l.l.l.l.l.l.l.l.l.l.l.l.l.l.l.l.l.l.l.l.l.l.l.l.l.l.l.l.l.l.l.l.l.l.l.l.l.l.l.",
"l.l.l.l.l.l.l.l.l.l.l.l.l.l.l.l.l.l.l.l.l.l.l.l.l.8.8.8.8.8.8.8.8.8.8.8.l.l.l.l.l.l.l.l.l.l.l.l.l.l.l.l.l.l.l.l.l.l.l.l.l.l.",
"l.l.l.l.l.l.l.l.l.l.l.l.l.l.l.l.l.l.l.l.l.l.l.l.l.k.k.k.k.k.k.k.k.k.k.k.l.l.l.l.l.l.l.l.l.l.l.l.l.l.l.l.l.l.l.l.l.l.l.l.l.l.",
"l.l.l.l.l.l.l.l.l.l.l.l.l.l.l.l.l.l.l.l.k.k.k.k.k.k.k.k.k.k.k.k.k.k.k.k.k.k.k.k.k.l.l.l.l.l.l.l.l.l.l.l.l.l.l.l.l.l.l.l.l.l.",
"l.l.l.l.l.l.l.l.l.l.l.l.l.l.l.l.l.l.k.k.k.k.k.k.k.k.k.k.k.k.k.k.k.k.k.k.k.k.k.k.k.k.l.l.l.l.l.l.l.l.l.l.l.l.l.l.l.l.l.l.l.l.",
"l.l.l.l.l.l.l.l.l.l.l.l.l.l.l.l.k.k.k.k.k.k.k.k.k.k.k.k.k.k.k.k.k.k.k.k.h.h.f.r.r.k.k.k.l.l.l.l.l.l.l.l.l.l.l.l.l.l.l.l.l.l.",
"l.l.l.l.l.l.l.l.l.l.l.l.l.l.k.k.k.k.k.k.k.k.k.k.k.k.k.k.k.k.k.k.k.k.g.3.3.3.3.3.3.3.k.k.k.k.l.l.l.l.l.l.l.l.l.l.l.l.l.l.l.l.",
"l.l.l.l.l.l.l.l.l.l.l.l.l.l.k.k.k.k.g.r.k.k.k.k.k.k.k.k.k.k.k.k.k.3.3.3.3.3.3.3.3.3.3.r.k.k.k.l.l.l.l.l.l.l.l.l.l.l.l.l.l.l.",
"l.l.l.l.l.l.l.l.l.l.l.l.k.k.k.h.g.r.k.k.k.k.k.k.k.k.k.k.k.k.k.h.3.3.3.3.3.3.3.3.3.3.3.3.3.p.j.k.l.l.l.l.l.l.l.l.l.l.l.l.l.l.",
"l.l.l.l.l.l.l.l.l.l.l.k.k.k.h.e.r.k.k.k.k.k.k.k.k.k.k.k.k.k.h.2.3.3.3.3.3.3.3.3.3.3.3.3.3.3.g.k.k.k.l.l.l.l.l.l.l.l.l.l.l.l.",
"l.l.l.l.l.l.l.l.l.l.g.h.k.j.e.e.k.k.k.k.k.k.k.k.k.k.k.k.k.d.%.' 3.3.3.3.3.;. .1.3.3.7.r.r.r.h.k.k.k.k.l.l.l.l.l.l.l.l.l.l.l.",
"l.l.l.l.l.l.l.l.l.k.g.f.r.e.3.g.k.k.k.k.k.k.k.k.k.k.h.q.O.S ' 1.3.3.3.e.g.a.%.1.3.3.h.k.k.k.k.k.k.k.k.k.l.l.l.l.l.l.l.l.l.l.",
"l.l.l.l.l.l.l.l.l.k.k.j.p.3.3.g.k.k.k.k.k.k.k.k.k.k.e.1. . .1.3.3.g.g.h.k.k.h.g.3.g.k.k.k.k.k.k.k.k.k.k.l.l.l.l.l.l.l.l.l.l.",
"l.l.l.l.l.l.l.l.k.k.k.k.g.3.3.g.k.k.k.k.k.k.k.k.k.r.3.3.3.3.3.3.g.k.k.k.k.k.k.k.g.k.k.k.k.k.k.k.k.k.k.k.k.l.l.l.l.l.l.l.l.l.",
"l.l.l.l.l.l.3.3.g.k.k.y.B _ 3.g.k.k.k.k.k.k.k.k.k.3.3.3.3.3.3.g.k.k.k.k.k.k.k.k.k.k.k.k.k.k.k.k.k.k.k.k.k.k.l.l.l.l.l.l.l.l.",
"l.l.l.l.l.l.3.3.g.k.k.g.r.k.f.h.k.k.k.k.k.k.k.d.O.r.3.3.3.3.3.g.k.k.k.k.k.k.k.k.k.k.k.k.k.k.k.k.k.k.k.k.k.k.k.l.l.l.l.l.l.l.",
"l.l.l.l.l.l.3.;.t.k.k.h.p.h.k.k.k.k.k.k.k.h.a.K k.g.3.3.7.r.r.h.k.k.k.k.k.k.k.k.k.k.k.k.k.k.k.k.k.k.k.k.k.k.k.l.l.l.l.l.l.l.",
"l.l.l.l.l.3.;.D  .g.k.k.h.f.k.k.k.k.k.j.s.%.' ..g.3.3.7.f.k.k.k.k.k.k.k.k.k.k.k.k.k.k.k.k.k.k.k.k.k.k.k.k.k.h.l.l.l.l.l.l.l.",
"l.l.l.l.l.3._ B  .3.r.k.k.k.k.k.k.k.k.g. .' 1.e.3.3.3.r.k.k.k.k.k.k.k.k.k.k.k.k.k.k.k.k.k.k.k.k.r.k.k.h.&.O.<.3.l.l.l.l.l.l.",
"l.l.l.l.3.;.Z B  .3.3.f.k.k.k.k.k.k.h.e.1.1.3.3.3.3.3.r.k.k.k.k.k.r.f.k.k.k.k.k.k.k.k.k.k.f.r.r._ O.O...Z B c 3.3.l.l.l.l.l.",
"l.l.l.l.3. .B B D 3.3.+.f.k.k.k.k.k.g.3.3.3.3.3.3.3.3.7.f.k.k.k.O._ 7.f.k.k.k.k.k.k.h.r.h.h.e.3. . .^ k B ' { f 3.l.l.l.l.l.",
"l.l.l.3. .B B B B 3.3. .B _ 3.g.k.k.y._ 3.3.3.3.3.3.3.3.3.3._ B B 3.3.3.r.k.k.k.k.3.r.k.r.3._ B 3.( f 3._  .3.B 3.3.l.l.l.l.",
"l.l.l.3. .B B B B B 3.3.3.3.g.k.k.k.y._ 3.3.3.3.3.3.3.3.3.3.3._ 3.3.3. .B B  .3.3.3.3.3.3.3.3.3.3.3.3.3.f 2 z B B 3.l.l.l.l.",
"l.l.l. .B B B B B B B r.f.k.k.k.k.k. .` r.h.k.k.r.O.&.r.e.3.3.3.3.3.3.3.3.3.3.3.3.3.3.3.3.3.3.3.3.' Z | | ;.3.B B 3.l.l.l.l.",
"l.l.>.' B B B B B B O.k.k.k.k.k.k.g.<.0.k.k.k.k.k.k.k.k.g.3.e.r.3.3.3.3.3.3.3.3.3.3.3.3.3.3.3.3.3.C V 3.3.3.;.B B @.l.l.l.l.",
"l.l.:.B B Z _ Z B B k.k.k.k.k.k.k.3.r.j.h.k.k.k.k.k.k.k.h.r.f.g.3.3.3.3.3.3.3.3.3.3.3.3.3.3.3.3.3.{ l { 1.3.| _ _ _ R l.l.l.",
"l.l.:.B B Z _ |  .B k.k.k.k.k.k.k._ +.p.f.h.k.k.k.k.k.h.r.r.7.3.3.3.3.3.3.3.3.3.3.3.3.3.3.3.3.3.3.D z r 1.3.3.3.3._ R l.l.l.",
"l.l.) B B D  .' _ B k.k.k.k.k.f.O.B 2.f.p.j.k.k.k.r.q...| 3.3.3.3.3.3.3.3.3.3.3.3.3.3.3.3.3.3.3.3.' m V 3.3.3.3._ _ R l.l.l.",
"l.l.B B B _ 3.;. .B r.k.k.h.r.+.B  .7.e.7.r.r.r.O._ 1. .;.3.3.3.g.g.3.3.3.3.3.3.g.3.3.3.3.3.3.3.3. .B _ 3.3.3.3.B Z t l.l.l.",
"l.l.B B B _ 3.3.3.B 3.3. .B B B B B _ 3.3.3.3.3.3.3.3.3.3.g.k.k.3.3.k.g.3.3.3.3.3.k.g.3.3.3.3.3.3.z 2 2 2 z  .3.B B w l.l.l.",
"l.l.B B B B  .3.3.3.B 3. .B B B B B B B B B B  .3.3.r.k.k.k.k.k.k.k.3.3.3.3.3.g.k.3.3.3._ y.k.k.k.4.2 2 z y.k.k.B B w l.l.l.",
"l.l.B B Z ` q.r.7.r.r.O.K B B B B B S O.0.k.k.k.k.k.k.k.k.k.k.k.k.k.k.k.k.k.k.k.k.k.e.=.i.k.k.k.k.k.k.k.k.k.k.k.k.d.T l.l.l.",
"l.l.A O.&.f.k.k.f.k.k.k.d.O.S B B O.0.k.k.k.k.k.k.k.k.k.k.k.k.k.k.k.k.k.k.k.k.k.k.k.i.~ w.k.k.k.k.k.k.k.k.k.k.k.k.k.-.l.l.l.",
"l.l.9.k.k.k.k.k.k.k.k.k.k.k.0.O.O.k.k.k.k.k.k.k.k.k.k.k.k.k.k.k.k.k.k.k.k.k.k.k.k.k.5.~ p.j.k.k.k.k.k.k.k.k.k.k.k.k.,.l.l.l.",
"l.l.k.k.k.k.k.k.k.k.k.k.k.k.k.k.k.k.k.k.k.k.k.k.k.k.k.k.k.k.k.k.k.k.k.k.k.k.k.k.k.k.~ 3.3.e.h.k.k.O.O.0.k.k.k.k.k.d.E l.l.l.",
"l.l.k.k.k.k.k.k.k.k.k.k.k.k.k.k.k.k.k.k.k.k.k.k.k.k.k.k.k.k.k.k.k.k.k.k.k.k.k.k.k.M f 3.3.3.e.O.O.6 6 d [ d.k.O.M X.l.l.l.l.",
"l.l.l.k.k.k.k.k.k.k.k.k.k.k.k.k.k.k.k.k.k.k.k.k.k.k.k.k.k.k.k.k.k.k.k.k.k.k.k.f.M 2 f 3.3.3.3. .B 2 2 2 5 v M 6 2 B l.l.l.l.",
"l.l.l.k.k.k.k.k.k.k.k.k.k.k.k.k.k.k.k.k.y.B B B B k.k.k.k.k.k.k.k.k.k.g.3.3.f 2 2 2 f 3.3.3.3.3.2 >     > 2 2 2 B B l.l.l.l.",
"l.l.l.k.k.k.k.k.k.k.k.k.k.k.k.k.k.k.y.B B B B 6 2 3.k.k.g.3.3.3.3.3. .B _ f 2 2 2 2 2 f 3.3.f 2 2         > 2 2 B B l.l.l.l.",
"l.l.l.l.k.k.k.k.k.k.k.k.k.k.k.k.y.y.B B B B x 5 2 2 ( {  .{ n ! (  .( ( b 2 2 2 2 2 2 2 2 , > 2 o o X       @ 2 B l.l.l.l.l.",
"l.l.l.l.k.k.k.h.j.k.k.k.k.k.d.y.B B B B m z 9 6 6 6 6 9 h < 1 2 2 B 2 2 2 2 2 2 2 2 , 2 2 # o 2 2 2 , X       6 B l.l.l.l.l.",
"l.l.l.l.l.k.u./ ] o.4.y.y.y.K B B B m z 9 5 x B B B B z >   @ > > B > > > > > > > 2 # 2 2 2 2 2 2 2 2 , o .   B l.l.l.l.l.l.",
"l.l.l.l.l.$.q o   > 2 6 4 * 4 6 * * % # 5 m B B B B B z >     @ > B > @       @ > 2 2 5 ! ( ( 2 2 e ( ( ( Q j l.l.l.l.l.l.l.",
"l.l.l.l.l.l.2 o   o 2 2 1 > @ o       o 6 B B B B B B 8 X   @ 1 2 B 2 1 > X   > 2 2 e { 1.3.3.( z } 3.3.3.3.;.l.l.l.l.l.l.l.",
"l.l.l.l.l.l.Y a o                     * B B B B B B B 7       > 2 B 2 >       > 2 2 3.3.3.3.3.3.3.3.3.3.3.3.l.l.l.l.l.l.l.l.",
"l.l.l.l.l.l.Y Y a                     * B B B B B B 7       > 2 2 B >       > z B B 3.3.3.3.3.3.3.3.3.3.3.3.l.l.l.l.l.l.l.l.",
"l.l.l.l.l.l.l.l.Y ;                   O g B B B z 7           O * B       @ & 3 B B ;.3.3.3.3.3.3.3.3.3.3.l.l.l.l.l.l.l.l.l.",
"l.l.l.l.l.l.l.l.l.Y o                   O 7 h z 2 o o + * * * 3 7 7         : O 7 7 j W *.3.3.3. . .#.6.l.l.l.l.l.l.l.l.l.l.",
"l.l.l.l.l.l.l.l.l.Y a X                     @ > > > > < 7 7 7 O             X o o o     0 W W ( z N I Y l.l.l.l.l.l.l.l.l.l.",
"l.l.l.l.l.l.l.l.l.l.Y s @                                               X > 1 2 2 2       @ > 2 2 P Y l.l.l.l.l.l.l.l.l.l.l.",
"l.l.l.l.l.l.l.l.l.l.l.U H p X                                           o 2 2 2 o o X > > 1 2 L L Y l.l.l.l.l.l.l.l.l.l.l.l.",
"l.l.l.l.l.l.l.l.l.l.l.l.Y U G =                                         . o , 2 > > , 2 2 2 F Y l.l.l.l.l.l.l.l.l.l.l.l.l.l.",
"l.l.l.l.l.l.l.l.l.l.l.l.l.l.Y Y 2                                           > 2 2 2 2 2 2 L Y l.l.l.l.l.l.l.l.l.l.l.l.l.l.l.",
"l.l.l.l.l.l.l.l.l.l.l.l.l.l.Y Y Y Y >                                     > 2 2 2 2 2 a Y Y l.l.l.l.l.l.l.l.l.l.l.l.l.l.l.l.",
"l.l.l.l.l.l.l.l.l.l.l.l.l.l.l.l.Y Y Y P i $ - $ o o o o X           . o # u a a a Y Y Y l.l.l.l.l.l.l.l.l.l.l.l.l.l.l.l.l.l.",
"l.l.l.l.l.l.l.l.l.l.l.l.l.l.l.l.l.l.Y Y Y J P J a a u 2 , o o o o o y a a P Y Y Y Y l.l.l.l.l.l.l.l.l.l.l.l.l.l.l.l.l.l.l.l.",
"l.l.l.l.l.l.l.l.l.l.l.l.l.l.l.l.l.l.l.l.Y Y Y Y Y Y P a a a a a a a Y Y Y Y Y Y Y l.l.l.l.l.l.l.l.l.l.l.l.l.l.l.l.l.l.l.l.l.",
"l.l.l.l.l.l.l.l.l.l.l.l.l.l.l.l.l.l.l.l.l.l.l.l.l.Y Y Y Y Y Y Y Y Y Y Y l.l.l.l.l.l.l.l.l.l.l.l.l.l.l.l.l.l.l.l.l.l.l.l.l.l.",
"l.l.l.l.l.l.l.l.l.l.l.l.l.l.l.l.l.l.l.l.l.l.l.l.l.l.l.l.l.l.l.l.l.l.l.l.l.l.l.l.l.l.l.l.l.l.l.l.l.l.l.l.l.l.l.l.l.l.l.l.l.l.",
"l.l.l.l.l.l.l.l.l.l.l.l.l.l.l.l.l.l.l.l.l.l.l.l.l.l.l.l.l.l.l.l.l.l.l.l.l.l.l.l.l.l.l.l.l.l.l.l.l.l.l.l.l.l.l.l.l.l.l.l.l.l."
};
