/* XPM */
static char *result[] = {
/* columns rows colors chars-per-pixel */
"62 62 204 2 ",
"   c #213623",
".  c #253A25",
"X  c #283D27",
"o  c #273C29",
"O  c #293F28",
"+  c #2C432A",
"@  c #2C4D2E",
"#  c #30462C",
"$  c #33492E",
"%  c #364D31",
"&  c #364C32",
"*  c #3C5334",
"=  c #355634",
"-  c #3C6139",
";  c #415837",
":  c #435B39",
">  c #425938",
",  c #4C643F",
"<  c #43673C",
"1  c #365555",
"2  c #355042",
"3  c #3E636B",
"4  c #425D45",
"5  c #4C6845",
"6  c #536E46",
"7  c #4D7344",
"8  c #487A45",
"9  c #537B4A",
"0  c #54734A",
"q  c #45655D",
"w  c #48685F",
"e  c #516F58",
"r  c #587654",
"t  c #657955",
"y  c #537567",
"u  c #567C7A",
"i  c #476C71",
"p  c #707D64",
"a  c #4C8749",
"s  c #51844B",
"d  c #518B4C",
"f  c #58804F",
"g  c #51924F",
"h  c #5A8D5A",
"j  c #529550",
"k  c #5B9C5A",
"l  c #589757",
"z  c #638F5C",
"x  c #62985D",
"c  c #5DA25D",
"v  c #5F8663",
"b  c #5E9B66",
"n  c #649A64",
"m  c #6B9B78",
"M  c #708E67",
"N  c #5FA162",
"B  c #65AB65",
"V  c #6CA46D",
"C  c #6CAC6C",
"Z  c #66A668",
"A  c #73A96E",
"S  c #6AB26B",
"D  c #6DAB7A",
"F  c #69A574",
"G  c #77AD79",
"H  c #72BB74",
"J  c #75BB7B",
"K  c #77B678",
"L  c #7AC47C",
"P  c #7AC47C",
"I  c #889877",
"U  c #85B57D",
"Y  c #87AD7E",
"T  c #4D798F",
"R  c #5B889A",
"E  c #5A858E",
"W  c #6DA682",
"Q  c #72AB85",
"!  c #73AB8B",
"~  c #75B485",
"^  c #79B889",
"/  c #76AC92",
"(  c #79AD96",
")  c #7AAE99",
"_  c #7DB399",
"`  c #7FB99A",
"'  c #7CB694",
"]  c #5889A6",
"[  c #598EB5",
"{  c #6196B9",
"}  c #7395AA",
"|  c #7DC384",
" . c #7FCA83",
".. c #7EC28A",
"X. c #5C93C2",
"o. c #629AC5",
"O. c #629BC9",
"+. c #629ED6",
"@. c #66A4DD",
"#. c #77BDD7",
"$. c #7FBEDD",
"%. c #68A7E6",
"&. c #6AACF0",
"*. c #6FB1EA",
"=. c #939E81",
"-. c #83B688",
";. c #97B98C",
":. c #83B49E",
">. c #82BD9A",
",. c #86B897",
"<. c #93AF8F",
"1. c #ACB399",
"2. c #8CB9A3",
"3. c #8AB7A1",
"4. c #98BEA9",
"5. c #B9BDA3",
"6. c #81CB84",
"7. c #82C58C",
"8. c #83CA8A",
"9. c #88C88B",
"0. c #92C98D",
"q. c #87D38A",
"w. c #82C394",
"e. c #86CA95",
"r. c #85C49A",
"t. c #87C89A",
"y. c #8ACC9B",
"u. c #89C599",
"i. c #95CB98",
"p. c #8AD492",
"a. c #8FDB93",
"s. c #8DD49A",
"d. c #8FD89A",
"f. c #91DE95",
"g. c #92DD9B",
"h. c #98D69B",
"j. c #A4C99C",
"k. c #93E197",
"l. c #96E59B",
"z. c #9AE69D",
"x. c #94CBA3",
"c. c #99C7A7",
"v. c #9AD5A3",
"b. c #8DD1B2",
"n. c #A6CBAD",
"m. c #B6C6A6",
"M. c #A7D8AB",
"N. c #B8D8AC",
"B. c #ABCAB4",
"V. c #B4CDB6",
"C. c #B8D5B9",
"Z. c #AED5B3",
"A. c #9EE6A1",
"S. c #92E0A3",
"D. c #A1E6A2",
"F. c #A4E8A5",
"G. c #ACE9AA",
"H. c #A9E7A9",
"J. c #B1EAAE",
"K. c #B1E7AD",
"L. c #B6E3B3",
"P. c #BCE5B4",
"I. c #B6EAB1",
"U. c #BCEBB5",
"Y. c #BEE4BA",
"T. c #C6DBB5",
"R. c #C6D8B9",
"E. c #D1D1BA",
"W. c #C2CDAE",
"Q. c #C4E3BC",
"!. c #C4ECBB",
"~. c #CAECBE",
"^. c #87B9EB",
"/. c #95C2EB",
"(. c #C9DAC4",
"). c #D3DDC9",
"_. c #E0DCC7",
"`. c #CCE4C3",
"'. c #CDEEC1",
"]. c #CAE9CB",
"[. c #D2EEC5",
"{. c #DAE2CE",
"}. c #D7EFC9",
"|. c #DBEDCB",
" X c #D5E4C6",
".X c #DCF0CC",
"XX c #DAE5D1",
"oX c #E3E6CC",
"OX c #E2EFCF",
"+X c #E0F1CF",
"@X c #E5EBD4",
"#X c #EAECD5",
"$X c #E6E8D6",
"%X c #F3EEDC",
"&X c #F8EFDD",
"*X c #E5F1D2",
"=X c #EAF2D5",
"-X c #EEF3D8",
";X c #F4F3DC",
":X c #F8F4DF",
">X c #F1EEE5",
",X c #FFF5E4",
"<X c #EBEDE1",
"1X c None",
/* pixels */
"1X1X1X1X1X1X1X1X1X1X1X1X1X1X1X1X1X1X1X1X1X1X1X1X1X1X1X1X1X1X1X1X1X1X1X1X1X1X1X1X1X1X1X1X1X1X1X1X1X1X1X1X1X1X1X1X1X1X1X1X1X1X",
"1X1X1X1X1X1X1X1X1X1X1X1X1X1X1X1X1X1X1X1X1X1X1X1X1X1X1X1X1X1X1X1X1X1X1X1X1X1X1X1X1X1X1X1X1X1X1X1X1X1X1X1X1X1X1X1X1X1X1X1X1X1X",
"1X1X1X1X1X1X1X1X1X1X1X1X1X1X1X1X1X1X1X1X1X1X1X1X1X1X1X1X1X1X1X1X1X1X1X1X1X1X1X1X1X1X1X1X1X1X1X1X1X1X1X1X1X1X1X1X1X1X1X1X1X1X",
"1X1X1X1X1X1X1X1X1X1X1X1X1X1X1X1X1X1X1X1X1X1X1X1X1X1X#.#.#.#.#./././.1X1X1X1X1X1X1X1X1X1X1X1X1X1X1X1X1X1X1X1X1X1X1X1X1X1X1X1X",
"1X1X1X1X1X1X1X1X1X1X1X1X1X1X1X1X1X1X1X1X1X1Xl.l.l.S.S.S.S.'.]..X>X>X>X>X,X,X1X1X1X1X1X1X1X1X1X1X1X1X1X1X1X1X1X1X1X1X1X1X1X1X",
"1X1X1X1X1X1X1X1X1X1X1X1X1X1X1X1X1X1X1X1Xl.l.l.l.l.l.l.U.'.;X,X>X,X,X,X,X,X,X,X,X1X1X1X1X1X1X1X1X1X1X1X1X1X1X1X1X1X1X1X1X1X1X",
"1X1X1X1X1X1X1X1X1X1X1X1X1X1X1X1X1X1Xl.l.l.l.l.l.l.l.J.-X:XI.!.>X,X,X,X,X,X,X,X,X,X,X1X1X1X1X1X1X1X1X1X1X1X1X1X1X1X1X1X1X1X1X",
"1X1X1X1X1X1X1X1X1X1X1X1X1X1X1X1Xl.l.l.l.z.l.l.l.z.J.I.~.'..X=X,X,X,X,X,X,X,X,X,X,X,X,X,X1X1X1X1X1X1X1X1X1X1X1X1X1X1X1X1X1X1X",
"1X1X1X1X1X1X1X1X1X1X1X1X1X1Xl.l.l.l.z.l.k.g.g.l.J.=X=X=X=X,X,X,X,X,X,X,X,X,X,X,X,X,X,X,X,X,X1X1X1X1X1X1X1X1X1X1X1X1X1X1X1X1X",
"1X1X1X1X1X1X1X1X1X1X1X1X1Xl.l.l.s.y.s.y.t.>.r.x.=X,X,X,X,X,X,X,X,X,X,X,X,X,X,X,X,X,X,X,X,X,X:X1X1X1X1X1X1X1X1X1X1X1X1X1X1X1X",
"1X1X1X1X1X1X1X1X1X1X1X1Xl.l.l.s..._ _ _ _ ) _ x.,X,X,X,X,X,X,X,X,X,X,X,X,X,X,X,X,X-X}.=X,X:X'.l.1X1X1X1X1X1X1X1X1X1X1X1X1X1X",
"1X1X1X1X1X1X1X1X1X1Xl.l.l.l.l.s.` ) ) / W ) :.s.!.=X!.=X,X,X,X,X,X,X,X,X,X,X,X-X'.[.*X-X:X'.F.l.A.A.1X1X1X1X1X1X1X1X1X1X1X1X",
"1X1X1X1X1X1X1X1X1Xl.z.z.l.l.f. .^ ..r...s.C.(.Q.[.-X'.-X,X,X,X,X,X,X,X,X,X,X,X-X}.[..X'.Z.v.z.l.S.l.l.1X1X1X1X1X1X1X1X1X1X1X",
"1X1X1X1X1X1X1X1X1Xl.l.l.l.l.a.L ^ e.8.i.U.*X,X,X,X,X,X,X,X,X,X,X,X,X,X,X,X,X,X,X:X.XY.v.` t.l.l.l.l.l.1X1X1X1X1X1X1X1X1X1X1X",
"1X1X1X1X1X1X1X1Xk.l.l.l.l.l.p...7.w.n.T..X=X,X,X,X,X,X,X,X,X,X,X-X;X,X,X,X,X>X@X`.C.(.C.n.n.l.g.d.s.s.s.1X1X1X1X1X1X1X1X1X1X",
"1X1X1X1X1X1X1X) g.l.l.l.l.d.t.^ K ,.).:X-X*X,X,X,X,X,X,X,X,X=X*XY.Q.{.{.%X,X-X`.Z.Z.`.$X#X|.G.w.~ ^ ` ' s.1X1X1X1X1X1X1X1X1X",
"1X1X1X1X1X1X1Xc.H.J.h.s.S.y.e.^ ! c. X+X}.~.;X,X,X,X,X,X,X,X'.'.M.v.c.B.XX,X:X=X@X#X;X,X,X,X}.-.b W ) W ~ g.1X1X1X1X1X1X1X1X",
"1X1X1X1X1X1X$X$X@X=XQ.i.` ..t...` s.K.[..X=X:X,X,X,X,X,X,X,X=X|.M.g.M.`.%X,X,X,X,X,X,X,X,X,X;XN.~ / ) ! b e.1X1X1X1X1X1X1X1X",
"1X1X1X1X1X,X,X,X-X-X;XN.,.>.x.x.r.s.H.#X:X,X,X:X*X:X,X,X,X,X;X`.v.d.Q.=X>X:X-X+X=X;X;X,X,X,X:X>X).2.) ) b w.l.1X1X1X1X1X1X1X",
"1X1X1X1X1X,X,X,X|.~.[.U.v.v.L.Y.c.>.y.M.=X:X;X[.z..X;X;X%X-XQ.S.t.r.M.!.~.'.U.F.J.[..X=X,X;X}.=X[.N.>.:.>.x.A.1X1X1X1X1X1X1X",
"1X1X1X1X1X,X,X,X,X;X[.!.'.'.=X$XC.n.v.C.}.=X~.H.v.L.).(.R.m.e.e.>.>.s.g.l.l.l.D.I.~.'.*X,X-X!.=X!.I.v.B.C.`.!.U.1X1X1X1X1X1X",
"1X1X1X1X,X,X,X,X,X,X,X,X,X,X,X,X>X=X}.!..X=XJ.g.x.XX{.n.:.! ! ) _ y.z.z.F.A.F.G.'.:X,X,X,X,X,X,X;X.X'.;X,X,X;X'.1X1X1X1X1X1X",
"1X1X1X1X,X,X,X,X,X,X,X,X,X,X,X,X,X,X:X*X-X,X|.i.XX,X,X$Xn.y.' / ' M.I.'..X+X.X+X[.'.*X,X,X,X,X=X!.~.=X;X,X=X~.G.I.1X1X1X1X1X",
"1X1X1X,X,X,X,X,X,X,X,X,X,X,X,X,X,X,X,X,X,X,X,X,X,X,X,X,XY.>...c j F B.=X,X,X,X,X,X,X,X,X,X,X,X,X,X.XA..X,X,X,X,X,X1X1X1X1X1X",
"1X1X1X,X,X=X.X;X,X,X,X,X,X,X,X,X,X,X,X;X.X.X.X.X,X;X.X;XU.z.t.! F Z i.`.}.!.[.;X,X,X,X,X,X,X,X,X,X,X,X,X,X,X,X=X.X1X1X1X1X1X",
"1X1X1X,X,X.XU.}.*X;X,X,X,X,X,X;X+X.X.X~.l.l.l.z..X'.I.*XU.z.d.` ) >.d.H.~.=X,X,X,X,X,X,X,X,X,X,X,X,X,X,X,X;X.X'.U.1X1X1X1X1X",
"1X1X-.:X,X}.U.}.=X=X=X>X,X-X[.!.}.~.G.z.l.l.l.l.z.F.[.,X!.y.>._ ) ) _ ).,X,X,X,X,X,X,X,X,X,X,X,X,X,X,X,X,X;X+X-X,X,X1X1X1X1X",
"1X1Xl m.*X}.}.;X=XY.M.(.;X,X=X'.!.J.z.l.l.l.l.l.l.l.F.=XZ._ W / ) _ >.H.+X,X,X,X,X,X,X,X,X,X,X,X,X,X,X,X,X,X,X,X,X,X1X1X1X1X",
"1X1Xg c H ~.:XI.x.3.s.A.x.3.3.3.y.g.l.g.y.l.l.l.A.;X;XY.A.N b ! r.g.g.u.M.@X,X,X,X,X,X,X,X,X,X,X,X,X,X,X,X,X,X'.v.2.1X1X1X1X",
"1X1Xj j B h.H.z.g.l.l.l.l.d.s.t.t.d.l.f.| P d.l.l.J.Y.c.D b ! _ ` d.l.g.| w.H.L.{.XX{.{.{.{.{.{.R.h.D.H.F.9.A C Q ( 1X1X1X1X",
"1X1Xj j B k.l.l.l.l.d.S.l.l.l.l.s.t.y.p.^ D t.g.l.G.`.4.F ! ( ) r.y.s.d.J H 6.8.,.) 3.3.3.3.2.,./ D 7.s.q.c j b ! ( 1X1X1X1X",
"1X1Xj j B k.l.l.l.d.r...t.y.d.l.d.r.t.s.e.p.g.l.l.A.M.! W ( ) ) _ ' ` Q N k c k k b b F / / D 7.| J ~ ' h 9 s -.m.C.1X1X1X1X",
"1X1Xj g c f.z.z.l.f.>.) _ ! J 7.r.>.d.g.l.l.z.z.l.l.g.C W ( ) _ r.y.>.! h s s d g j k m ! / D g.f.6.^ y.A Y ;.E.#X%X1X1X1X1X",
"1X1Xg d z a.l.l.z.f.>.( ) Q D / _ >.g.l.l.l.l.l.l.l.l.Z D ) _ t.g.g.t.( v 7 d g g g 9 h m F D l.k. .6.k.q.Q.oX:X,X,X1X1X1X1X",
"1X1Xg d z f.l.l.l.k.d.r._ / ' w.y.d.l.l.l.l.l.l.l.l.l.n h b Z H L C n r r s g g j g d j l l c S S B B ^ l.K.U.+X,X[.1X1X1X1X",
"1X1Xg s f 6.l.l.z.l.g.t.>.>.>.t.g.g.l.l.l.l.g.q...w.p.z a g l H J C n x l B H P L L L L L H c c A U j.i.l.l.l.I.*X.X1X1X1X1X",
"1X1Xg s 7 J k.l.l.l.p.8.7.e.y.t.u.s.g.l.l.l.e.J D ~ ..f a g k B B S K ~ P P 6.f.l.l.l.z.F.A.6.U K.L.I.D.l.l.l.U.*X,X1X1X1X1X",
"1X1X1Xd , C L 6. .L S S S  .d.d.s.d.k.l.l.g.>.7. .q. .s d g g g j S 6.7.K 0.M.N.I.U.I.J.G.I.l.h.U.G.l.l.l.l.A..X:X,X1X1X1X1X",
"1X1X1Xd 7 f l c c c j j g P l.g.l.z.f.q.l.g.u.s.l.k...h g g j g j C h.0.;.T.oX$X.X'.!.J.F.F.l.l.l.l.l.z.l.F.!.-X,X1X1X1X1X1X",
"1X1X1Xg s < 8 g j j g c S 8.l.l.D.U.P.h.q.k.w.w.p.t.' b s s s s A ;.T. X@X&X,X,X=X.X[.J.l.l.l.l.F.!.F.l.U.'.-X,X,X1X1X1X1X1X",
"1X1X1Xj d % < a g j j S q.l.l.F.~.;X,XoX0.U m m :.B.V.<.I t 6 9 5.%X,X,X,X,X,X,X,X,X,X.XI.G.G.U.~.*X~.U.,X,X,X,X,X1X1X1X1X1X",
"1X1X1X1Xs > > 7 g j j c L k.F.'.;X:X:X:XE.I 6 t 5.,X,X,X,XW.M ;. X,X,X,X,X,X,X,X,X,X,X,X;X.X.X,X-X[.;X,X,X,X;X:X1X1X1X1X1X1X",
"1X1X1X1X9 , > , a d g j U h.U.+X=X+X=X:X;XE.I 1.,X,X,X,X,X,Xm.!.;X,X,X,X,X,X,X,X,X,X,X,X,X,X,X,X,X,X-X=X*X+X'..X1X1X1X1X1X1X",
"1X1X1X1X1X, * : - 8 a a Y W. X}.~.~.+X:X:X;XoX%X,X,X,X,X,X,X~.[.*X=X;X,X,X,X,X,X,X,X,X,X,X,X,X,X:X=X[.!.J.F.z.1X1X1X1X1X1X1X",
"1X1X1X1X1X5 : : + @ @ * 0 I 5.~.!.I.!.=XoX~.[.*X$X%X,X,X-X=X[.~.~.~.+X:X,X,X,X,X,X:X:X%X=X=X=X,X=X~.'.'.z.l.z.1X1X1X1X1X1X1X",
"1X1X1X1X1X1X, +   . . . . % 0 G k.k.z.k.q.K K f.z.K.=X=XU.A.l.G..X;X;X,X:X:X&X&X#X#XOXP.z.A.G.;X-X=XJ.l.z.l.z.1X1X1X1X1X1X1X",
"1X1X1X1X1X1X5 + X # % + X $ 6 z U a.k.9.x s k H k.z.z.z.J.!.z.l.k.G.~.~.#X&X_.5.;.G K 9.D.!.[.U.G.l.l.S.l.b.1X1X1X1X1X1X1X1X",
"1X1X1X1X1X1X1X3 * : , > % $ % : 0 V K A d j g j  .U.U.!.~.}.D.a. .P G V <.5.I t , , 6 n a.l.z.'.I.l.l.S.b.1X1X1X1X1X1X1X1X1X",
"1X1X1X1X1X1X1X1Xu 5 5 : 5 ; $ ; ; ; > , g g j j k N.T..X!.U.h.K j 8 = + + : , , , , : 0 A 7.V V F V h.b.*.1X1X1X1X1X1X1X1X1X",
"1X1X1X1X1X1X1X1X1XR e 5 , , , : $   . % 8 g j g g s 7 1.=X,Xv 5 % +     . * , , > # $ $ % *       o } ^.1X1X1X1X1X1X1X1X1X1X",
"1X1X1X1X1X1X1X1X1X@.E e , , , 5 : ; X . @ = = < 7 = $ p M p O O .         + $ $ +         .       1 @.1X1X1X1X1X1X1X1X1X1X1X",
"1X1X1X1X1X1X1X1X1X1X%.R e , , , , : O   . % , 7 , , * o o o o .                       . . % + 5 T %.1X1X1X1X1X1X1X1X1X1X1X1X",
"1X1X1X1X1X1X1X1X1X1X1X%.R e , , : % .       . .     .                         . O $ * : , , 5 R %.1X1X1X1X1X1X1X1X1X1X1X1X1X",
"1X1X1X1X1X1X1X1X1X1X1X1X1XR y 1 + .                               X + . + + $ $ : , , , 5 y u 1X1X1X1X1X1X1X1X1X1X1X1X1X1X1X",
"1X1X1X1X1X1X1X1X1X1X1X1X1X1Xo.] i 2 .                             X + X X $ + $ $ % : u ] o.1X1X1X1X1X1X1X1X1X1X1X1X1X1X1X1X",
"1X1X1X1X1X1X1X1X1X1X1X1X1X1X1X%.O.] T i +                         . .     . . . + q R { %.1X1X1X1X1X1X1X1X1X1X1X1X1X1X1X1X1X",
"1X1X1X1X1X1X1X1X1X1X1X1X1X1X1X1X1X1X@.+.[ ] w > * > > + & .               + $ w ] o.@.1X1X1X1X1X1X1X1X1X1X1X1X1X1X1X1X1X1X1X",
"1X1X1X1X1X1X1X1X1X1X1X1X1X1X1X1X1X1X1X1X&.%.O.{ { R y w q q 1 1 1 w w w T [ [ { @.1X1X1X1X1X1X1X1X1X1X1X1X1X1X1X1X1X1X1X1X1X",
"1X1X1X1X1X1X1X1X1X1X1X1X1X1X1X1X1X1X1X1X1X1X&.&.*.%.O.O.X.O.X.X.X.o.o.{ @.&.&.1X1X1X1X1X1X1X1X1X1X1X1X1X1X1X1X1X1X1X1X1X1X1X",
"1X1X1X1X1X1X1X1X1X1X1X1X1X1X1X1X1X1X1X1X1X1X1X1X1X&.&.&.&.&.&.&.&.&.&.1X1X1X1X1X1X1X1X1X1X1X1X1X1X1X1X1X1X1X1X1X1X1X1X1X1X1X",
"1X1X1X1X1X1X1X1X1X1X1X1X1X1X1X1X1X1X1X1X1X1X1X1X1X1X1X1X1X1X1X1X1X1X1X1X1X1X1X1X1X1X1X1X1X1X1X1X1X1X1X1X1X1X1X1X1X1X1X1X1X1X",
"1X1X1X1X1X1X1X1X1X1X1X1X1X1X1X1X1X1X1X1X1X1X1X1X1X1X1X1X1X1X1X1X1X1X1X1X1X1X1X1X1X1X1X1X1X1X1X1X1X1X1X1X1X1X1X1X1X1X1X1X1X1X"
};
