/* XPM */
static char *result[] = {
/* columns rows colors chars-per-pixel */
"62 62 242 2 ",
"   c #010100",
".  c #0B0402",
"X  c #0D0904",
"o  c #0A0A09",
"O  c #1C0000",
"+  c #130B04",
"@  c #1C0809",
"#  c #180A03",
"$  c #1A130B",
"%  c #18140B",
"&  c #1C1B18",
"*  c #230100",
"=  c #2C0000",
"-  c #2B0B01",
";  c #260709",
":  c #280708",
">  c #240809",
",  c #2B0809",
"<  c #230A02",
"1  c #340200",
"2  c #3B0200",
"3  c #3B0901",
"4  c #320C00",
"5  c #261B0B",
"6  c #3C1302",
"7  c #371104",
"8  c #241E18",
"9  c #2F261A",
"0  c #352F1A",
"q  c #37250F",
"w  c #2B2B24",
"e  c #302D22",
"r  c #420401",
"t  c #4B0401",
"y  c #450B01",
"u  c #4C0B01",
"i  c #530C00",
"p  c #5B0E00",
"a  c #570600",
"s  c #4C1201",
"d  c #4D1801",
"f  c #451401",
"g  c #531300",
"h  c #5B1401",
"j  c #531B01",
"k  c #5B1B01",
"l  c #531809",
"z  c #621501",
"x  c #631C01",
"c  c #6B1B01",
"v  c #681600",
"b  c #7B1E00",
"n  c #751901",
"m  c #640E00",
"M  c #4A2804",
"N  c #572401",
"B  c #642201",
"V  c #6B2301",
"C  c #652804",
"Z  c #732501",
"A  c #792502",
"S  c #742C01",
"D  c #7B2A02",
"F  c #752D0C",
"G  c #723100",
"H  c #7A3205",
"J  c #6F3109",
"K  c #63450E",
"L  c #694927",
"P  c #535243",
"I  c #6C6B54",
"U  c #7F7857",
"Y  c #892502",
"T  c #832C01",
"R  c #8A2C02",
"E  c #832601",
"W  c #952D03",
"Q  c #833201",
"!  c #8C3301",
"~  c #8E3B01",
"^  c #863905",
"/  c #943302",
"(  c #9B3401",
")  c #933B02",
"_  c #9A3A01",
"`  c #94370A",
"'  c #803A15",
"]  c #9A3B16",
"[  c #A43B03",
"{  c #AA3B02",
"}  c #A33701",
"|  c #B23E02",
" . c #A12F00",
".. c #8A4703",
"X. c #9D4503",
"o. c #9B4A01",
"O. c #944705",
"+. c #94461A",
"@. c #86401C",
"#. c #A24302",
"$. c #AB4302",
"%. c #A54D01",
"&. c #AD4C02",
"*. c #AB430E",
"=. c #B34C02",
"-. c #BC4B02",
";. c #B84404",
":. c #AB5302",
">. c #A75300",
",. c #B35202",
"<. c #BB5402",
"1. c #B75707",
"2. c #B74C17",
"3. c #A84E16",
"4. c #BB6605",
"5. c #A76C16",
"6. c #9C4221",
"7. c #A95521",
"8. c #B25622",
"9. c #836F34",
"0. c #AC652E",
"q. c #C34D01",
"w. c #C45402",
"e. c #CB5401",
"r. c #C45E03",
"t. c #C95B0A",
"y. c #D25E14",
"u. c #CC5515",
"i. c #C46303",
"p. c #CD6B04",
"a. c #C5620B",
"s. c #C66805",
"d. c #D26C02",
"f. c #D86603",
"g. c #C6750C",
"h. c #D47504",
"j. c #D77805",
"k. c #C9691C",
"l. c #DD7010",
"z. c #E56B01",
"x. c #E16301",
"c. c #E37D04",
"v. c #E67606",
"b. c #E97617",
"n. c #E9750B",
"m. c #C65625",
"M. c #C46627",
"N. c #D66928",
"B. c #D47B26",
"V. c #D57937",
"C. c #D3732F",
"Z. c #EB7937",
"A. c #F57B36",
"S. c #E9742C",
"D. c #93794D",
"F. c #A5754A",
"G. c #9F802B",
"H. c #DA850B",
"J. c #DC8714",
"K. c #CF800E",
"L. c #E58202",
"P. c #E78607",
"I. c #F18803",
"U. c #EA9506",
"Y. c #FC9A0E",
"T. c #E88B13",
"R. c #E59716",
"E. c #F79818",
"W. c #F9AC0E",
"Q. c #FAAA19",
"!. c #F7B41A",
"~. c #EBA40A",
"^. c #D28636",
"/. c #EA8A24",
"(. c #FA882B",
"). c #E69728",
"_. c #F79825",
"`. c #E88A36",
"'. c #E99737",
"]. c #F99835",
"[. c #EBA729",
"{. c #F9A629",
"}. c #FAB72A",
"|. c #FBAB3B",
" X c #F6B639",
".X c #ECA639",
"XX c #FDC438",
"oX c #FFD03B",
"OX c #A29270",
"+X c #DD944F",
"@X c #EC8A44",
"#X c #F78944",
"$X c #EC9748",
"%X c #F69847",
"&X c #E89855",
"*X c #F79B57",
"=X c #F9A849",
"-X c #FBB74A",
";X c #FCA452",
":X c #FDAB5D",
">X c #F7A753",
",X c #FDB555",
"<X c #FEB952",
"1X c #FFB65D",
"2X c #F9B75B",
"3X c #EFA45C",
"4X c #DEA468",
"5X c #FAA861",
"6X c #FEBC63",
"7X c #FEB76B",
"8X c #FAB977",
"9X c #E2B271",
"0X c #FBC749",
"qX c #FFD448",
"wX c #FBCA58",
"eX c #FDD35F",
"rX c #FFC064",
"tX c #FCC56B",
"yX c #FDDB63",
"uX c #FDC67B",
"iX c #FDDA77",
"pX c #FEE57A",
"aX c #FFE26E",
"sX c #B0AE8F",
"dX c #D2C892",
"fX c #FEC683",
"gX c #FBC986",
"hX c #FCD989",
"jX c #FED892",
"kX c #F5CC92",
"lX c #FEE38B",
"zX c #FEEA97",
"xX c #FFF59B",
"cX c #FDD5A1",
"vX c #FDEBA4",
"bX c #FFF6A5",
"nX c #FEEBB7",
"mX c #FFFBB7",
"MX c #FEFFDB",
"NX c #FDFDD6",
"BX c #FCF4C2",
"VX c None",
/* pixels */
"VXVXVXVXVXVXVXVXVXVXVXVXVXVXVXVXVXVXVXVXVXVXVXVXVXVXVXVXVXVXVXVXVXVXVXVXVXVXVXVXVXVXVXVXVXVXVXVXVXVXVXVXVXVXVXVXVXVXVXVXVXVX",
"VXVXVXVXVXVXVXVXVXVXVXVXVXVXVXVXVXVXVXVXVXVXVXVXVXVXVXVXVXVXVXVXVXVXVXVXVXVXVXVXVXVXVXVXVXVXVXVXVXVXVXVXVXVXVXVXVXVXVXVXVXVX",
"VXVXVXVXVXVXVXVXVXVXVXVXVXVXVXVXVXVXVXVXVXVXVXVXVXVXVXVXVXVXVXVXVXVXVXVXVXVXVXVXVXVXVXVXVXVXVXVXVXVXVXVXVXVXVXVXVXVXVXVXVXVX",
"VXVXVXVXVXVXVXVXVXVXVXVXVXVXVXVXVXVXVXVXVXVXVXVXVXVXVXVXVXVXVXVXVXVXVXVXVXVXVXVXVXVXVXVXVXVXVXVXVXVXVXVXVXVXVXVXVXVXVXVXVXVX",
"VXVXVXVXVXVXVXVXVXVXVXVXVXVXVXVXVXVXVXVXVXVXVXVXVXVXVXVXVXVXVXVXVXVXVXVXVXVXVXVXVXVXVXVXVXVXVXVXVXVXVXVXVXVXVXVXVXVXVXVXVXVX",
"VXVXVXVXVXVXVXVXVXVXVXVXVXVXVXVXVXVXVXVXVXVXVXVXVXVXVXVXVXVXVXVXVXVXVXVXVXVXVXVXVXVXVXVXVXVXVXVXVXVXVXVXVXVXVXVXVXVXVXVXVXVX",
"VXVXVXVXVXVXVXVXVXVXVXVXVXVXVXVXVXVXVXVXVXVXVXVXVXVXVXVXVXVXVXVXVXVXVXVXVXVXVXVXVXVXVXVXVXVXVXVXVXVXVXVXVXVXVXVXVXVXVXVXVXVX",
"VXVXVXVXVXVXVXVXVXVXVXVXVXVXVXVXVXVXVXVXVXVXVXVXVXVXVXVXVXVXVXVXVXVXVXVXVXVXVXVXVXVXVXVXVXVXVXVXVXVXVXVXVXVXVXVXVXVXVXVXVXVX",
"VXVXVXVXVXVXVXVXVXVXVXVXVXVXVXVXVXVXVXVXVXVXVXVXVXVXVXVXVXVXVXVXVXVXVXVXVXVXVXVXVXVXVXVXVXVXVXVXVXVXVXVXVXVXVXVXVXVXVXVXVXVX",
"VXVXVXVXVXVXVXVXVXVXVXVXVXVXVXVXVXVXVXVXVXVXVXVXVXVXVXVXVXVXVXVXVXVXVXVXVXVXVXVXVXVXVXVXVXVXVXVXVXVXVXVXVXVXVXVXVXVXVXVXVXVX",
"VXVXVXVXVXVXVXVXVXVXVXVXVXVXVXVXVXVXVXVXVXVXVXVXVXVXVXVXVXVXVXVXVXVXVXVXVXVXVXVXVXVXVXVXVXVXVXVXVXVXVXVXVXVXVXVXVXVXVXVXVXVX",
"VXVXVXVXVXVXVXVXVXVXVXVXVXVXVXVXVXVXVXVXVXVXVXVXVXVXVXVXVXVXVXVXVXVXVXVXVXVXVXVXVXVXVXVXVXVXVXVXVXVXVXVXVXVXVXVXVXVXVXVXVXVX",
"VXVXVXVXVXVXVXVXVXVXVXVXVXVXVXVXVXVXVXVXVXVXVXVXVXVXVXVXVXVXVXVXVXVXVXVXVXVXVXVXVXVXVXVXVXVXVXVXVXVXVXVXVXVXVXVXVXVXVXVXVXVX",
"VXVXVXVXVXVXVXVXVXVXVXVXVXVXVXVXVXVXVXVXVXVXVXVXVXVXVXVXVXVXVXVXVXVXVXVXVXVXVXVXVXVXVXVXVXVXVXVXVXVXVXVXVXVXVXVXVXVXVXVXVXVX",
"VXVXVXVXVXVXVXVXVXVXVXVXVXVXVXVXVXVXVXVXVXVXVXVXVXVXVXVXVXVXVXVXVXVXVXVXVXVXVXVXVXVXVXVXVXVXVXVXVXVXVXVXVXVXVXVXVXVXVXVXVXVX",
"VXVXVXVXVXVXVXVXVXVXVXVXVXVXVXVXVXVXVXVXVXVXVXVXVXVXVXVXVXVXVXVXVXVXVXVXVXVXVXVXVXVXVXVXVXVXVXVXVXVXVXVXVXVXVXVXVXVXVXVXVXVX",
"VXVXVXVXVXVXVXVXVXVX; , , , , , , ; > > ; : ; : : : ; ; ; > > @ @ @ @ @ VXVXVXVXVXVXVXVXVXVXVXVXVXVXVXVXVXVXVXVXVXVXVXVXVXVX",
"VXVXVXVXVXVXO = 1 2 r 2 2 2 2 2 2 2 1 3 2 3 f f y y r 3 3 2 1 = = 1 = = = * * VXVXVXVXVXVXVXVXVXVXVXVXVXVXVXVXVXVXVXVXVXVXVX",
"VXVXVX* = = r a m p t i i t h x x x Z D D Q ^ H V x k z z x x z h p i y t t y t 2 2 = VXVXVXVXVXVXVXVXVXVXVXVXVXVXVXVXVXVXVX",
"VXVX* * 3 y u x V z c A A O.3.o.~ O.%.&.=.&.$.X./ ! ! Q T Q ~ ~ ! ! T D A Z c z g s y y r VXVXVXVXVXVXVXVXVXVXVXVXVXVXVXVXVX",
"VX* * - f l N F ' ` 6.2.k.`.B.k.B.B.4.a.a.a.4.1.4.g.g.g.4.g.4.>.>.%.:.&.,.$._ ! D V x x h g u VXVXVXVXVXVXVXVXVXVXVXVXVXVXVX",
"VX< - 7 f M F 6.m.N.S.A.#X@X+X3X:X%X$X'.'.'.'.[.[.[.[.5.K 5 + . # M ..g.d.s.s.i.<.&.O.Q Z x h i t VXVXVXVXVXVXVXVXVXVXVXVXVX",
"VX- 6 j k N ` m.Z.#X%X5X7X8X8XuX9XgXkXjXhXaXeXqX0XG.% +             X M 5.H.T.H.j.d.i.&._ D V k i y 2 VXVXVXVXVXVXVXVXVXVXVX",
"VX6 d x B C ] u.N.Z.5XlXzXhXjXzXdXI P w I dXpXaX9.q %         .         . 5.R.H.H.H.h.p.r.&._ T c h y 2 VXVXVXVXVXVXVXVXVXVX",
"VXf g V N N ^ 2.2.V.tXxXbXzXnXNXNX& e o       $ 5 X             o . .   X q ^.[.).J.H.P.I.c.p.,./ Z z u y 2 VXVXVXVXVXVXVXVX",
"VXd k Z C M Z *.1.M.5XiXxXmXMXMXBXdX&                   +     o           X L =X-X|._.E.E.W.W.U.d.;.R c p t r VXVXVXVXVXVXVX",
"VXN B D S V c W ,.,.B.<XiXxXmXmXmXvXD.w X                   o X o         X 5 >X-X<X,X|._.[.{.!.W.U.h.#.b h a r VXVXVXVXVXVX",
"VXVXV H ! Q S Z ` $.a.).wXyXpXzXmXvXhXD.$ .                               o + &X5X1XwX2X-X%X(._.E.Y.Y.n.<.W c p 2 VXVXVXVXVX",
"VXVXG G ! $.X.D Y $.t.v.[.oXqXwXlXxXiX2X7.<                                 o 4X8X7X6XrX6X1X=X].(.b.n.n.y.q.( Z u r VXVXVXVX",
"VXVXVX..H $.-.{ ( } w.d.U.XXoXoXwXiXpX2X@X8.7 .                               F.gXfXuX7X5X:X1X,X].(./.y.;.| _ T B s VXVXVXVX",
"VXVXVXO...~ { | { { =.i.g.R.XXXXXX0XwXtX3X@X0.C <                               % D.kXgX8X5X;X1X;X].{._.l.| Y Z B j i VXVXVX",
"VXVXVXVX%...O.#._ / [ r.i.p.R.[.XX[.-X4X5X*X*X@X7.C - .                           . 9 OXjX8X;X;X<X=X(.(._.l.[ c l d p r VXVX",
"VXVXVXVXVX%.1.4.%._ / { $.<.j.R.W.!. X=X3X&X*X*X%XV.3.F 6 # . .                       o OXkX8X5X:X,X%XA.A.b.y.` g y i r = VX",
"VXVXVXVXVXVX,.i.s.r.=.` ` ;.e.j.U.W.!.[..X$X&X&X*X*X#XC.8.+.F l 3 > # # . .     . $ w P sXnXkX8X8X6X,X#XS.y.u.] S u y 3 1 VX",
"VXVXVXVXVXVXVX! X.,.i.4.1.{ ;.-.f.c.U.~.~.R.).).@X$X$X`.`.Z.N.m.8.6.' ' ' +.0.F.L 9 9 dXBXcXfXgXfX7X1X*XA.m.] ` R k 4 4 2 1 ",
"VXVXVXVXVXVXVXVXj V ~ &.t.t.e.-.;.w.v.I.U.U.H.R.R.T.T././././.].|.`.`.`.'.=X1X6X8X8X8XuXkXuX6X7X7X:X=X%XZ.m.] A V j 4 1 r 2 ",
"VXVXVXVXVXVXVXVXVXd k c D [ =.=.[ { e.z.v.I.I.L.L.L.j.P.P.v.P.E.Q.{.|. X X0X<X<X<X>X$X-XwX0X|.].|.=X].].N.2.W F k d y 3 r 2 ",
"VXVXVXVXVXVXVXVXVXVXVXj k k x Z / _ { -.e.f.f.f.f.p.f.z.z.z.x.z.n.I.Q.Q.}.XX0X0X X[. XXX}.{./._.{.].`.b.y.[ W A k f y r 2 2 ",
"VXVXVXVXVXVXVXVXVXVXVXVXVXd f g x Z A Y  .{ ;.-.-.=.<.<.q.q.w.w.q.q.e.d.T.j.K.g.g.J.R.T.j.p.n.T.l.t.t.y.q. .Y x u y r 2 1 = ",
"VXVXVXVXVXVXVXVXVXVXVXVXVXVXVXVXd g j x Z E T T R _ $.$.} ! ! /  .( ! ) O.X.%.4.s.p.4.:.%.<.f.x.;. .{ | W E c t 2 2 2 1 = VX",
"VXVXVXVXVXVXVXVXVXVXVXVXVXVXVXVXVXVXVXk x x k x V D ! ( ( R D A D G G G ^ O.:.,.1.:.X.O.X.-.e.-.( Y W  .E m t 1 1 = = * O VX",
"VXVXVXVXVXVXVXVXVXVXVXVXVXVXVXVXVXVXVXVXVXVXg j h x x V A D Z Z C C G Q ..X.%.) Q Q T D A R W R v v n n a r 2 = = * O O VXVX",
"VXVXVXVXVXVXVXVXVXVXVXVXVXVXVXVXVXVXVXVXVXVXVXVXVXs g h k k B V Z S Z D D D A n c x z s y y i y r t t r 2 1 = * O O VXVXVXVX",
"VXVXVXVXVXVXVXVXVXVXVXVXVXVXVXVXVXVXVXVXVXVXVXVXVXVXVXVXVXVXy g h h h g i g g h p u r 2 3 1 1 1 2 r 1 = * * * O VXVXVXVXVXVX",
"VXVXVXVXVXVXVXVXVXVXVXVXVXVXVXVXVXVXVXVXVXVXVXVXVXVXVXVXVXVXVXVXVXVXVXVX2 2 r 3 2 2 2 1 1 VXVXVXVXVXVXVXVXVXVXVXVXVXVXVXVXVX",
"VXVXVXVXVXVXVXVXVXVXVXVXVXVXVXVXVXVXVXVXVXVXVXVXVXVXVXVXVXVXVXVXVXVXVXVXVXVXVXVXVXVXVXVXVXVXVXVXVXVXVXVXVXVXVXVXVXVXVXVXVXVX",
"VXVXVXVXVXVXVXVXVXVXVXVXVXVXVXVXVXVXVXVXVXVXVXVXVXVXVXVXVXVXVXVXVXVXVXVXVXVXVXVXVXVXVXVXVXVXVXVXVXVXVXVXVXVXVXVXVXVXVXVXVXVX",
"VXVXVXVXVXVXVXVXVXVXVXVXVXVXVXVXVXVXVXVXVXVXVXVXVXVXVXVXVXVXVXVXVXVXVXVXVXVXVXVXVXVXVXVXVXVXVXVXVXVXVXVXVXVXVXVXVXVXVXVXVXVX",
"VXVXVXVXVXVXVXVXVXVXVXVXVXVXVXVXVXVXVXVXVXVXVXVXVXVXVXVXVXVXVXVXVXVXVXVXVXVXVXVXVXVXVXVXVXVXVXVXVXVXVXVXVXVXVXVXVXVXVXVXVXVX",
"VXVXVXVXVXVXVXVXVXVXVXVXVXVXVXVXVXVXVXVXVXVXVXVXVXVXVXVXVXVXVXVXVXVXVXVXVXVXVXVXVXVXVXVXVXVXVXVXVXVXVXVXVXVXVXVXVXVXVXVXVXVX",
"VXVXVXVXVXVXVXVXVXVXVXVXVXVXVXVXVXVXVXVXVXVXVXVXVXVXVXVXVXVXVXVXVXVXVXVXVXVXVXVXVXVXVXVXVXVXVXVXVXVXVXVXVXVXVXVXVXVXVXVXVXVX",
"VXVXVXVXVXVXVXVXVXVXVXVXVXVXVXVXVXVXVXVXVXVXVXVXVXVXVXVXVXVXVXVXVXVXVXVXVXVXVXVXVXVXVXVXVXVXVXVXVXVXVXVXVXVXVXVXVXVXVXVXVXVX",
"VXVXVXVXVXVXVXVXVXVXVXVXVXVXVXVXVXVXVXVXVXVXVXVXVXVXVXVXVXVXVXVXVXVXVXVXVXVXVXVXVXVXVXVXVXVXVXVXVXVXVXVXVXVXVXVXVXVXVXVXVXVX",
"VXVXVXVXVXVXVXVXVXVXVXVXVXVXVXVXVXVXVXVXVXVXVXVXVXVXVXVXVXVXVXVXVXVXVXVXVXVXVXVXVXVXVXVXVXVXVXVXVXVXVXVXVXVXVXVXVXVXVXVXVXVX",
"VXVXVXVXVXVXVXVXVXVXVXVXVXVXVXVXVXVXVXVXVXVXVXVXVXVXVXVXVXVXVXVXVXVXVXVXVXVXVXVXVXVXVXVXVXVXVXVXVXVXVXVXVXVXVXVXVXVXVXVXVXVX",
"VXVXVXVXVXVXVXVXVXVXVXVXVXVXVXVXVXVXVXVXVXVXVXVXVXVXVXVXVXVXVXVXVXVXVXVXVXVXVXVXVXVXVXVXVXVXVXVXVXVXVXVXVXVXVXVXVXVXVXVXVXVX",
"VXVXVXVXVXVXVXVXVXVXVXVXVXVXVXVXVXVXVXVXVXVXVXVXVXVXVXVXVXVXVXVXVXVXVXVXVXVXVXVXVXVXVXVXVXVXVXVXVXVXVXVXVXVXVXVXVXVXVXVXVXVX",
"VXVXVXVXVXVXVXVXVXVXVXVXVXVXVXVXVXVXVXVXVXVXVXVXVXVXVXVXVXVXVXVXVXVXVXVXVXVXVXVXVXVXVXVXVXVXVXVXVXVXVXVXVXVXVXVXVXVXVXVXVXVX",
"VXVXVXVXVXVXVXVXVXVXVXVXVXVXVXVXVXVXVXVXVXVXVXVXVXVXVXVXVXVXVXVXVXVXVXVXVXVXVXVXVXVXVXVXVXVXVXVXVXVXVXVXVXVXVXVXVXVXVXVXVXVX",
"VXVXVXVXVXVXVXVXVXVXVXVXVXVXVXVXVXVXVXVXVXVXVXVXVXVXVXVXVXVXVXVXVXVXVXVXVXVXVXVXVXVXVXVXVXVXVXVXVXVXVXVXVXVXVXVXVXVXVXVXVXVX",
"VXVXVXVXVXVXVXVXVXVXVXVXVXVXVXVXVXVXVXVXVXVXVXVXVXVXVXVXVXVXVXVXVXVXVXVXVXVXVXVXVXVXVXVXVXVXVXVXVXVXVXVXVXVXVXVXVXVXVXVXVXVX",
"VXVXVXVXVXVXVXVXVXVXVXVXVXVXVXVXVXVXVXVXVXVXVXVXVXVXVXVXVXVXVXVXVXVXVXVXVXVXVXVXVXVXVXVXVXVXVXVXVXVXVXVXVXVXVXVXVXVXVXVXVXVX"
};
