/* XPM */
static char *result[] = {
/* columns rows colors chars-per-pixel */
"62 62 248 2 ",
"   c #010202",
".  c #060A0A",
"X  c #070909",
"o  c #130D04",
"O  c #0A110C",
"+  c #171609",
"@  c #0B1311",
"#  c #151A19",
"$  c #1A1C1D",
"%  c #131715",
"&  c #10011A",
"*  c #2A1411",
"=  c #1C221C",
"-  c #15251C",
";  c #142009",
":  c #252618",
">  c #2F2717",
",  c #090229",
"<  c #130B30",
"1  c #2E1733",
"2  c #1D2524",
"3  c #232A24",
"4  c #252B2D",
"5  c #2A2E2C",
"6  c #242627",
"7  c #332A27",
"8  c #363329",
"9  c #2A2E31",
"0  c #252837",
"q  c #362B34",
"w  c #2D3134",
"e  c #2E3338",
"r  c #313435",
"t  c #32353A",
"y  c #363A3D",
"u  c #3A3D3D",
"i  c #363937",
"p  c #2A3329",
"a  c #4C2318",
"s  c #702C16",
"d  c #4F1D31",
"f  c #483A33",
"g  c #4F3332",
"h  c #713133",
"j  c #690D0D",
"k  c #39413E",
"l  c #4A4938",
"z  c #6D4A38",
"x  c #040046",
"c  c #1B094E",
"v  c #2B1943",
"b  c #270657",
"n  c #30124C",
"m  c #3B3D43",
"M  c #373843",
"N  c #3C3559",
"B  c #32294E",
"V  c #16036B",
"C  c #280667",
"Z  c #36087B",
"A  c #32136D",
"S  c #3D2764",
"D  c #511D51",
"F  c #413C46",
"G  c #583A56",
"H  c #4F3251",
"J  c #44176E",
"K  c #583A67",
"L  c #4D3678",
"P  c #573575",
"I  c #4C2872",
"U  c #6F3867",
"Y  c #3D4244",
"T  c #3F4048",
"R  c #414445",
"E  c #444945",
"W  c #43444A",
"Q  c #46494C",
"!  c #4B4D4D",
"~  c #4B4A45",
"^  c #5C5349",
"/  c #4B4C53",
"(  c #494B53",
")  c #544958",
"_  c #4D5153",
"`  c #4D5458",
"'  c #535454",
"]  c #54545B",
"[  c #57595A",
"{  c #524F47",
"}  c #684C49",
"|  c #775D54",
" . c #67594F",
".. c #5C5B63",
"X. c #5B5966",
"o. c #5B4869",
"O. c #6D536E",
"+. c #5B6366",
"@. c #64636C",
"#. c #676768",
"$. c #6D6B72",
"%. c #686671",
"&. c #726B76",
"*. c #757578",
"=. c #72706C",
"-. c #7F644A",
";. c #872E0A",
":. c #81382C",
">. c #A62C32",
",. c #C6383A",
"<. c #8E482E",
"1. c #AE5334",
"2. c #B1633E",
"3. c #912F4F",
"4. c #B13858",
"5. c #AB3460",
"6. c #8B524D",
"7. c #B25A49",
"8. c #98645A",
"9. c #8C6A56",
"0. c #BD684A",
"q. c #A66A58",
"w. c #B5654E",
"e. c #955B6F",
"r. c #AC466B",
"t. c #966D65",
"y. c #92776A",
"u. c #AA736B",
"i. c #CC6D50",
"p. c #F36F56",
"a. c #C57864",
"s. c #C47C70",
"d. c #EA7C60",
"f. c #7E807C",
"g. c #90857F",
"h. c #A98376",
"j. c #B48C7A",
"k. c #DA8569",
"l. c #C38773",
"z. c #D6957A",
"x. c #D08E75",
"c. c #EC8564",
"v. c #E8997C",
"b. c #FF9978",
"n. c #2D1A83",
"m. c #350E88",
"M. c #2C0B99",
"N. c #431581",
"B. c #50188B",
"V. c #583A89",
"C. c #4D3291",
"Z. c #673699",
"A. c #64338B",
"S. c #5A34AB",
"D. c #7535B6",
"F. c #5D1EA8",
"G. c #79589C",
"H. c #704B8C",
"J. c #7F7A85",
"K. c #766896",
"L. c #704BB4",
"P. c #7C30CF",
"I. c #7559C9",
"U. c #847C88",
"Y. c #8F6C92",
"T. c #B07A8D",
"R. c #8A57AA",
"E. c #8D73A7",
"W. c #B060A3",
"Q. c #C17AA3",
"!. c #874ECC",
"~. c #9973D4",
"^. c #9B6ADE",
"/. c #878689",
"(. c #8D8593",
"). c #938A95",
"_. c #958C99",
"`. c #9A9B9C",
"'. c #979598",
"]. c #969290",
"[. c #BB978A",
"{. c #A59999",
"}. c #A89189",
"|. c #B7A69A",
" X c #9E95A3",
".X c #A69CA8",
"XX c #AB95B4",
"oX c #ACA3AD",
"OX c #A8A6A8",
"+X c #B2A7AA",
"@X c #AFA3B3",
"#X c #B2A6B2",
"$X c #B4A9B3",
"%X c #B6ABB9",
"&X c #BAAEBB",
"*X c #B4A6BA",
"=X c #B8B3B8",
"-X c #B7B1AD",
";X c #C7988A",
":X c #D89B86",
">X c #CF9593",
",X c #E69B84",
"<X c #F7968D",
"1X c #D7A389",
"2X c #C9A799",
"3X c #D8AD95",
"4X c #E7A488",
"5X c #FAA788",
"6X c #FBA596",
"7X c #F0B196",
"8X c #CD91AD",
"9X c #C7B7A9",
"0X c #D7B6AA",
"qX c #D6BBB6",
"wX c #CAABAE",
"eX c #E5B5A5",
"rX c #FBB8A5",
"tX c #EFB4AF",
"yX c #CAC1B8",
"uX c #D6C2B9",
"iX c #FCC5A9",
"pX c #FACBB8",
"aX c #FFD6B8",
"sX c #E9C3B7",
"dX c #B088D3",
"fX c #B7A7C7",
"gX c #D0ACCC",
"hX c #D7AAF3",
"jX c #DFB1D6",
"kX c #BEC3C2",
"lX c #DBCAC5",
"zX c #DBD5CB",
"xX c #DBDAD8",
"cX c #CDC9D2",
"vX c #FAD9C8",
"bX c #E6DAD7",
"nX c #EFD4CC",
"mX c #F9E5D8",
"MX c #F6E6D4",
"NX c #E4D9E6",
"BX c #ECCEF7",
"VX c #E9E7E7",
"CX c #FDEDE3",
"ZX c #F4E6E5",
"AX c #FCF1E9",
"SX c #F8EFF4",
"DX c #DFCDEA",
"FX c None",
/* pixels */
"FXFXFXFXFXFXFXFXFXFXFXFXFXFXFXFXFXFXFXFXFXFXFXFXFXFXFXFXFXFXFXFXFXFXFXFXFXAXCXSXFXFXFXFXFXFXFXFXFXFXFXFXFXFXFXFXFXFXFXFXFXFX",
"FXFXFXFXFXFXFXFXFXFXFXFXFXFXFXFXFXFXFXFXFXFXFXFXFXFXFXFXzXOX{.-X-X+XyXuX>X>X1Xz.eXMXFXFXFXFXFXFXFXFXFXFXFXFXFXFXFXFXFXFXFXFX",
"FXFXFXFXFXFXFXFXFXFXFXFXFXFXFXFXFXFXFXFXFXFXFXFXFX-X~ : +   X o     @ * h u.>X6Xv.l.vXFXFXFXFXFXFXFXFXFXFXFXFXFXFXFXFXFXFXFX",
"FXFXFXFXFXFXFXFXFXFXFXFXFXFXFXFXFXFXZX0X2X3XgX(.W     X ; > +   M S v n , % D U 8X5Xz.AXFXFXFXFXFXFXFXFXFXFXFXFXFXFXFXFXFXFX",
"FXFXFXFXFXFXFXFXFXFXFXFXFXFXFXFXFXsXk.0.i.6.a X   % = % l l > f O.V.c S S v , , J Q.>XnXFXFXFXFXFXFXFXFXFXFXFXFXFXFXFXFXFXFX",
"FXFXFXFXFXFXFXFXFXFXFXFXFXFXFXFXbX7X<XrXT.d 1 q 5 % # M p ; 8 9.O.V.n 1 L L L B b C Q.FXFXFXFXFXFXFXFXFXFXFXFXFXFXFXFXFXFXFX",
"FXFXFXFXFXFXFXFXFXFXFXFXFXFXFXVXeXiXvX>Xn c v ] 7 $ N H = ; z 9.O.A.n 6 B L.L.L < c n.SXFXFXFXFXFXFXFXFXFXFXFXFXFXFXFXFXFXFX",
"FXFXFXFXFXFXFXFXFXFXFXFXFXFXFXFX3XvXwX< b S H.$.q o.&.] ^ ^ l h.}.H.d q B I D.L.v < V C.FXFXFXFXFXFXFXFXFXFXFXFXFXFXFXFXFXFX",
"FXFXFXFXFXFXFXFXFXFXFXFXFXFXFXFXmX8Xb n.b I dXY.T.Y.wXY.| g @.#.g R.o.) P b L.^.V.x n.M.L.FXFXFXFXFXFXFXFXFXFXFXFXFXFXFXFXFX",
"FXFXFXFXFXFXFXFXFXFXFXFXFXFXFXFXcXn n.n.A Z.R.U Q.U 3.:.:.* X     R.~.Y.R.P L.^.S.V A M.M.DXFXFXFXFXFXFXFXFXFXFXFXFXFXFXFXFX",
"FXFXFXFXFXFXFXFXFXFXFXFXFXFXFXJ.G dXC.x F.!.Z.D r.4.>.,.p.:.    D R.R.P A.A.J Z.I.L.V Z N.B.VXFXFXFXFXFXFXFXFXFXFXFXFXFXFXFX",
"FXFXFXFXFXFXFXFXFXFXFXFXFXFXFX=XBXH.x Z L.L.J D r.4.5.4.>.j 6.3XpXW.Q.Y.n P J I S.I.C.Z B.x J jXFXFXFXFXFXFXFXFXFXFXFXFXFXFX",
"FXFXFXFXFXFXFXFXFXFXFXFXFXFXFXFXNX, V ~.~.P G.D d d d * * 6.rXvXCXgXZXpXD G A.J S.n.L.S.F.C b b NXFXFXFXFXFXFXFXFXFXFXFXFXFX",
"FXFXFXFXFXFXFXFXFXFXFXFXFXFXFXFXoXH.I.hXP o.E.I 1 v M @ a s.6XrXvXCXAX8XU o.G.C C.C.M.^.P.B.fXb K.FXFXFXFXFXFXFXFXFXFXFXFXFX",
"FXFXFXFXFXFXFXFXFXFXFXFXFXFXFXVXK.hX!.R.E.X.B A.c N B = > q.v.4X6XrXpXT.e.q G.C.A V.C n.D.Z.SXcX).xXFXFXFXFXFXFXFXFXFXFXFXFX",
"FXFXFXFXFXFXFXFXFXFXFXFXFXFXFX'.O.BXZ & FX{.  o.S N 0 p ; g l.,X6X6X6X8.H 1 G K.L S A b B.hXFXFXFXFXFXFXFXFXFXFXFXFXFXFXFXFX",
"FXFXFXFXFXFXFXFXFXFXFXFXFXFXFXOX{.NXH., VXxX  M N < # % : : g 9.t.8.9.} 6 o G Y.L N S A Z.jXFXFXFXFXFXFXFXFXFXFXFXFXFXFXFXFX",
"FXFXFXFXFXFXFXFXFXFXFXFXFXFXFXFXFXFXFX1 F FXJ.  = - w 8 + : + X X     + o 6.}.q F M < x I Y.VXFXFXFXFXFXFXFXFXFXFXFXFXFXFXFX",
"FXFXFXFXFXFXFXFXFXFXFXFXFXFXFXFXFXFXFX) o.FXFXE X : w  .} * > ^ { ^ [ | j.3Xl q / @   K.E.) VXFXFXFXFXFXFXFXFXFXFXFXFXFXFXFX",
"FXFXFXFXFXFXFXFXFXFXFXFXFXFXFXFXFXFXFX+XsXmXFXkX  - $ * l | t.h.[.}.0XsX;Xz l X.( y e ` xXFXFXFXFXFXFXFXFXFXFXFXFXFXFXFXFXFX",
"FXFXFXFXFXFXFXFXFXFXFXFXFXFXFXFXFXFXFXyX1XrXFXcX  = 3 3 $ 7 } }  .6.9.9. .=.*.X.] [ [ - +.FXFXFXFXFXFXFXFXFXFXFXFXFXFXFXFXFX",
"FXFXFXFXFXFXFXFXFXFXFXFXFXFXFXFXFXFXFXFXl.z.FX'.  3 3 4 q 5 > 7 f { ^ =.].'.J.J.+.` _ _ p _ VXFXFXFXFXFXFXFXFXFXFXFXFXFXFXFX",
"FXFXFXFXFXFXFXFXFXFXFXFXFXFXFXFXFXFXFXFXz.,XmXp   3 4 0 t t u u ! [ *.'.'.`.).y.@.] ( ( [ 9 E FXFXFXFXFXFXFXFXFXFXFXFXFXFXFX",
"FXFXFXFXFXFXFXFXFXFXFXFXFXFXFXFXFXFXFXbX,XiXpX[.g.: 0 e t t u ~ ` +./.`.{.{.]./.%...( Y Q +.Y ` VXFXFXFXFXFXFXFXFXFXFXFXFXFX",
"FXFXFXFXFXFXFXFXFXFXFXFXFXFXFXFXFXFXFX[.x.z.z.rXz.g u t e y Y Q ] &.U..X+X+XOX).*.+.` e w Y #.Y [ FXFXFXFXFXFXFXFXFXFXFXFXFX",
"FXFXFXFXFXFXFXFXFXFXFXFXFXFXFXFXFXFXFX|.a.a.z.4X7Xx.^ w t Y R Q [ &._..X#X$X&X.X/.@.` Y # # ( $.R ).FXFXFXFXFXFXFXFXFXFXFXFX",
"FXFXFXFXFXFXFXFXFXFXFXFXFXFXFXFXFXFXFXyX7.k.,XrXiX8.k i u W W Q [ &.U..X*X*XwX*X X*...T 0   . _ $.w -XFXFXFXFXFXFXFXFXFXFXFX",
"FXFXFXFXFXFXFXFXFXFXFXFXFXFXFXFXFXFXFXFXh.q.w.j.u.a : p R Q W E [ #.(..X#X&X&X&X@XU.%.T 9 ).y   [ $.` FXFXFXFXFXFXFXFXFXFXFX",
"FXFXFXFXFXFXFXFXFXFXFXFXFXFXFXFXFXFXFXFXFXbX+X]./.: # 9 m E Q ' #.%.U.{.$X=X&X&X@X XJ.` 4 @.FX!   f.*.=.FXFXFXFXFXFXFXFXFXFX",
"FXFXFXFXFXFXFXFXFXFXFXFXFXFXFXFXFXFXFXFXFXFXFXFXFX X  2 e Y ( [ ..%./..X@X=XgX&X%XOXJ.+.`   =XFXQ   g.l -XFXFXFXFXFXFXFXFXFX",
"FXFXFXFXFXFXFXFXFXFXFXFXFXFXFXFXFXFXFXFXFXFXFXFXFXcX  6 w m / ..+.@.J. X$X=X=X&X=X@X(.$.` 5 i FXFXR X =.+.FXFXFXFXFXFXFXFXFX",
"FXFXFXFXFXFXFXFXFXFXFXFXFXFXFXFXFXFXFXFXFXFXFXFXFXOX  4 w m ( @.+.+.J._.OX=X&X&X&X%X X$.` _ # OXFXFX5 ^ 2XxXFXFXFXFXFXFXFXFX",
"FXFXFXFXFXFXFXFXFXFXFXFXFXFXFXFXFXFXFXFXFXFXFXFXFXg.X 4 t m Q X.@.%.*.(.oX#X&X&X&X#X'.&.[ _ 7 m FXFXVXz 1XtXFXFXFXFXFXFXFXFX",
"FXFXFXFXFXFXFXFXFXFXFXFXFXFXFXFXFXFXFXFXFXFXFXFXFX#.  4 e m Y ] @.@.&.).oX$X%X=X&X#X_.&.[ ! R % zXFXFX9X<.6XtXFXFXFXFXFXFXFX",
"FXFXFXFXFXFXFXFXFXFXFXFXFXFXFXFXFXFXFXFXFXFXFXFXFXY X 9 t y y ( X.@.%.(..X#X%X&X&X#X_.=.' ! E O /.FXFXzX2.b.rXnXFXFXFXFXFXFX",
"FXFXFXFXFXFXFXFXFXFXFXFXFXFXFXFXFXFXFXFXFXFXFXFXFX- @ w M y m W ] %.$.J..X#X+X%X%X+X).%.' Q F # [ FXFX}.1X8.h tXnXFXFXFXFXFX",
"FXFXFXFXFXFXFXFXFXFXFXFXFXFXFXFXFXFXFXFXFXFXFXFXkX  2 t m m Y R ` %.J.).oX@X#X#X#X+X_...! E R 2 R FXFXxXZXxXy.8.sXFXFXFXFXFX",
"FXFXFXFXFXFXFXFXFXFXFXFXFXFXFXFXFXFXFXFXFXFXFXFXQ X 9 y m m Y R ( @.(.oX*X@X#X#X+X+X_.] Q Q R 5 3 FXFXFXFXFXFX9Xu.MXFXFXFXFX",
"FXFXFXFXFXFXFXFXFXFXFXFXFXFXFXFXFXFXFXFXFXFXFXVX. # r m m t t Y Q ..U.XXfX@X%X#X@X*X(.X.Q Q Y p O =XFXFXFXFXFXAXz eXAXFXFXFX",
"FXFXFXFXFXFXFXFXFXFXFXFXFXFXFXFXFXFXFXFXFXFXFX#.X 5 y m y w w t Y ' $._.@X_.&X#X@XfX(.X.R W W = . *.FXFXFXFXFXg.s u.eXFXFXFX",
"FXFXFXFXFXFXFXFXFXFXFXFXFXFXFXFXFXFXFXFXFXFXFX% O w m m M w 9 w u ! X.J. X).fX@X#X@XU.) T Y Y =   ~ FXFXFXFXFXFX6.q.uXFXFXFX",
"FXFXFXFXFXFXFXFXFXFXFXFXFXFXFXFXFXFXFXFXFXFX/.  6 M F ( W e 9 9 t W ] @._.'..X@X@XXX] ( W T y 2 O % VXFXFXFXFXFXFXuXFXFXFXFX",
"FXFXFXFXFXFXFXFXFXFXFXFXFXFXFXFXFXFXFXFXFXFXX . 6 t W ) ( t 9 9 e W ) ` %.J.(.).J.X.m W Y Y t 6 =   `.FXFXFXFXFXFXFXFXFXFXFX",
"FXFXFXFXFXFXFXFXFXFXFXFXFXFXFXFXFXFXFXFXFXFX  3 9 M ( ] ( y 9 4 4 t F / / X.$.$.X.W W Q R Y t w 6 X +.FXFXFXFXFXFXFXFXFXFXFX",
"FXFXFXFXFXFXFXFXFXFXFXFXFXFXFXFXFXFXFXFXFXFX. 5 y m ) X./ m M 5 9 y W ( ] ] ..X.] Q W Q W Y m t w 9 _ =XFXFXFXFXFXFXFXFXFXFX",
"FXFXFXFXFXFXFXFXFXFXFXFXFXFXFXFXFXFXFXFXFXFX+ p m F ( ` ( F 9 e 9 9 r y m F W W W T F W W Y m y k e i `.FXFXFXFXFXFXFXFXFXFX",
"FXFXFXFXFXFXFXFXFXFXFXFXFXFXFXFXFXFXFXFXFXFX= p y W / ` ( m m y 9 9 9 r t r y m m m F F m y m t e Y k f.FXFXFXFXFXFXFXFXFXFX",
"FXFXFXFXFXFXFXFXFXFXFXFXFXFXFXFXFXFXFXFXFX{ 3 t M W ) / Q m R r t 9 e 9 9 r t M F m m F m m y M Y _ l /.FXFXFXFXFXFXFXFXFXFX",
"FXFXFXFXFXFXFXFXFXFXFXFXFXFXFXFXFXFXFXFXFX#.O l T T ( ( m t 9 r y y t e t e w 9 r y r r t M Y T ` [ 3 '.FXFXFXFXFXFXFXFXFXFX",
"FXFXFXFXFXFXFXFXFXFXFXFXFXFXVXVXVXZXbXxXbX/.  t F m W m e 9 5 2 4 9 w e e 4 4 3 6 9 9 9 t e M T ` ' 3 ].FXFXFXFXFXFXFXFXFXFX",
"FXFXFXFXFXFXnXlXqX0X0X2X;Xh.u.t.9.6.6.6.6.t.8 : ~ l u w 9 9 5 $     . . X X   O 2 9 9 9 w y Y ( _ [ p -XFXFXFXFXFXFXFXFXFXFX",
"FXFXFXFXFX:X:X>X;X;X[.2XwXwXqXqX0XqXlXlXlXZXxX= % R l r 9 9 # . #. X`.'.'.].[ $   . 2 3 w M Y Q _ E i VXFXFXFXFXFXFXFXFXFXFX",
"FXFXFXFX0XsXMXSXFXFXFXFXFXFXFXFXFXFXFXFXFXFXFXyX3 $ W u w 4   =XFXFXFXFXFXFXFXFX/.i   . e e M T ' % *.FXFXFXFXFXFXFXFXFXFXFX",
"FXFXFXqX[.FXFXFXFXFXFXFXFXFXFXFXFXFXFXFXFXFXFXFXVXM # Y k   #.FXFXFXFXFXFXFXFXFXFXFX/.. X 2 y m # _ FXFXFXFXFXFXFXFXFXFXFXFX",
"FXFXFXFX2Xt.zXFXFXFXFXFXFXFXFXFXFXFXFXFXFXFXFXFXFXVX: > + + VXFXFXFXFXFXFXFXFXFXFXFXFXVX[ O % o 7 FXFXFXFXFXFXFXFXFXFXFXFXFX",
"FXFXFXFXFXwXu.lXbXFXFXFXFXFXFXFXFXFXFXFXFXFXVXyX}.>Xa.a.w.9.FXFXFXFXFXFXFXFXFXFXFXFXFXFXFXz * h q.;X2XzXFXFXFXFXFXFXFXFXFXFX",
"FXFXFXFXFXFXqXh.lXbXFXFXFXFXFXFXFXFXnXuXz.z.u.2.0.d.b.b.c.j.CXFXFXFXFXFXFXFXFXFXFXFXFXFXFX}.a w.a.i.1.<.q.;X;X0XAXFXFXFXFXFX",
"FXFXFXFXFXFXFXuXh.uXbXFXFXFXFXFXFX0Xv.i.k.5Xc.p.c.p.p.2.j.CXFXFXFXFXFXFXFXFXFXFXFXFXFXFXFXFX+Xs ;.1.p.1.;.i.k.0.:XnXFXFXFXFX",
"FXFXFXFXFXFXFXFXbX2XlXFXFXFXFXFXFXj.k.v.aX5X0.4XaXc.1.2XFXFXFXFXFXFXFXFXFXFXFXFXFXFXFXFXFXFXFXlXz s v.pX0.2.rXrXv.1XVXFXFXFX",
"FXFXFXFXFXFXFXFXFXFXbXFXFXFXFXFXFXuXl.7XiX2.i.aX7Xx.zXFXFXFXFXFXFXFXFXFXFXFXFXFXFXFXFXFXFXFXFXFXFXh.q.iX7Xs k.aX7X3XFXFXFXFX",
"FXFXFXFXFXFXFXFXFXFXFXFXFXFXFXFXFXFXFXvXmXCXCXmXMXFXFXFXFXFXFXFXFXFXFXFXFXFXFXFXFXFXFXFXFXFXFXFXFXFXmXMXFXAXqXpXCXFXFXFXFXFX",
"FXFXFXFXFXFXFXFXFXFXFXFXFXFXFXFXFXFXFXFXFXFXFXFXFXFXFXFXFXFXFXFXFXFXFXFXFXFXFXFXFXFXFXFXFXFXFXFXFXFXFXFXFXFXFXFXFXFXFXFXFXFX"
};
