/* XPM */
static char *result[] = {
/* columns rows colors chars-per-pixel */
"64 64 207 2 ",
"   c #0C2535",
".  c #0C2635",
"X  c #0C2636",
"o  c #0D2636",
"O  c #0D2736",
"+  c #0D2637",
"@  c #0D2737",
"#  c #0E2737",
"$  c #0D2837",
"%  c #0E2837",
"&  c #0E2937",
"*  c #0E2738",
"=  c #0D2838",
"-  c #0E2838",
";  c #0E2938",
":  c #0E2839",
">  c #0E2939",
",  c #0E2A38",
"<  c #0F2A38",
"1  c #0F2B38",
"2  c #0F2B39",
"3  c #0E293A",
"4  c #0F293A",
"5  c #0F2A3A",
"6  c #0F2B3A",
"7  c #0F2A3B",
"8  c #0F2C39",
"9  c #102B39",
"0  c #102C39",
"q  c #102C3A",
"w  c #102D3A",
"e  c #112D3A",
"r  c #102C3B",
"t  c #102D3B",
"y  c #112D3B",
"u  c #102E3A",
"i  c #112E3A",
"p  c #112E3B",
"a  c #112F3B",
"s  c #102A3C",
"d  c #102D3C",
"f  c #112D3D",
"g  c #112F3C",
"h  c #122F3C",
"j  c #122E3D",
"k  c #122F3D",
"l  c #122F3E",
"z  c #122F3F",
"x  c #11303C",
"c  c #12303C",
"v  c #12313C",
"b  c #13313C",
"n  c #12313D",
"m  c #13313D",
"M  c #13323D",
"N  c #12303E",
"B  c #13333E",
"V  c #14333D",
"C  c #14333E",
"Z  c #14333F",
"A  c #14343E",
"S  c #14343F",
"D  c #15353F",
"F  c #143240",
"G  c #143243",
"H  c #153440",
"J  c #153541",
"K  c #153640",
"L  c #163740",
"P  c #163741",
"I  c #153542",
"U  c #153443",
"Y  c #163642",
"T  c #163742",
"R  c #163643",
"E  c #163544",
"W  c #163644",
"Q  c #163745",
"!  c #163841",
"~  c #173941",
"^  c #173A41",
"/  c #163842",
"(  c #173942",
")  c #173843",
"_  c #173943",
"`  c #173A43",
"'  c #183B43",
"]  c #183C43",
"[  c #183A44",
"{  c #183A45",
"}  c #193B45",
"|  c #183947",
" . c #183B46",
".. c #193B47",
"X. c #183C44",
"o. c #183C45",
"O. c #193C45",
"+. c #193D45",
"@. c #193E45",
"#. c #193D46",
"$. c #193C47",
"%. c #1A3D46",
"&. c #1A3D47",
"*. c #1A3E46",
"=. c #1A3F46",
"-. c #1A3E47",
";. c #1B3F47",
":. c #183948",
">. c #183949",
",. c #193A4A",
"<. c #1A3D48",
"1. c #1A3D49",
"2. c #1B3F48",
"3. c #1A3E49",
"4. c #1B3F49",
"5. c #193D4A",
"6. c #1A3C4A",
"7. c #1A3C4B",
"8. c #1B3F4A",
"9. c #1B3D4E",
"0. c #1C3F4D",
"q. c #1C3E4F",
"w. c #1B4047",
"e. c #1B4147",
"r. c #1C4247",
"t. c #1B4048",
"y. c #1B4049",
"u. c #1B4149",
"i. c #1C4149",
"p. c #1C4248",
"a. c #1C4348",
"s. c #1C424B",
"d. c #1B404D",
"f. c #1A404F",
"g. c #1C404C",
"h. c #1C414C",
"j. c #1D414C",
"k. c #1D434C",
"l. c #1D424D",
"z. c #1D434D",
"x. c #1C414F",
"c. c #1C434F",
"v. c #1E424E",
"b. c #1F474F",
"n. c #1C4050",
"m. c #1D4050",
"M. c #1E4350",
"N. c #1F4450",
"B. c #1F4550",
"V. c #1F4552",
"C. c #1E4556",
"Z. c #204652",
"A. c #204653",
"S. c #214754",
"D. c #204655",
"F. c #214953",
"G. c #224956",
"H. c #224957",
"J. c #224A56",
"K. c #234B57",
"L. c #214758",
"P. c #224759",
"I. c #234A59",
"U. c #224C5A",
"Y. c #244F5A",
"T. c #234D5F",
"R. c #254D5D",
"E. c #254E5C",
"W. c #264F5D",
"Q. c #264E5E",
"!. c #26505D",
"~. c #26515F",
"^. c #26525E",
"/. c #26535E",
"(. c #244C61",
"). c #274E63",
"_. c #275160",
"`. c #275262",
"'. c #265460",
"]. c #275064",
"[. c #295266",
"{. c #2A536B",
"}. c #2B5569",
"|. c #2C566B",
" X c #2C5A6B",
".X c #2A5C69",
"XX c #2D596C",
"oX c #2E5A6F",
"OX c #2D5870",
"+X c #2C5A71",
"@X c #2F5972",
"#X c #2E5B72",
"$X c #305F73",
"%X c #306774",
"&X c #316478",
"*X c #35637E",
"=X c #36677E",
"-X c #36687F",
";X c #376884",
":X c #386B85",
">X c #396A87",
",X c #3A6A87",
"<X c #386D86",
"1X c #407094",
"2X c #417897",
"3X c #4882A5",
"4X c None",
/* pixels */
"4X4X4X4X4X4X4X4X4X4X4X4X4X4X4X4X4X4X  4X4X4X4X4X4X4X4X4X4X4X4X4X4X4X4X4X4X4X4X4X4X4X4X4X4X  4X4X4X4X4X4X4X4X4X4X4X4X4X4X4X4X4X4X",
"4X4X4X4X4X4X4X4X4X4X4X4X4X4XO   ; P < %   4X4X4X4X4X4X  s   4X4X4X4X  s   4X4X4X4X4X4X  % < P ;   O 4X4X4X4X4X4X4X4X4X4X4X4X4X4X",
"4X4X4X4X4X4X4X4X4X4X4X4X4X4X  $ e.a.=.c   4X4X4X4X  o O 2 ;         ; 2 O o   4X4X4X4X  c =.a.e.$   4X4X4X4X4X4X4X4X4X4X4X4X4X4X",
"4X4X4X4X4X4X4X4X4X4X4X4X4X4X$ O =.=.4.1 O 7 4X4X& K ' 2 K A O p p O A K 2 ' K & 4X4X7 O 1 4.=.=.O $ 4X4X4X4X4X4X4X4X4X4X4X4X4X4X",
"4X4X4X4X4X4X4X4X4X4X4X4X4X. & $ 2.1X!.r.C   4X4X! W._.4.b.#.q D D q #.b.4._.W.! 4X4X  C r.!.1X2.$ & . 4X4X4X4X4X4X4X4X4X4X4X4X4X",
"4X4X4X4X4X4X4X4X4X4X4X4X; L @.! q.2X%Xy.m.; q c a.3X@XV.,.2 n i.i.n 2 ,.V.@X3Xa.c q ; m.y.%X2Xq.! @.L ; 4X4X4X4X4X4X4X4X4X4X4X4X",
"4X4X4X4X4X4X4X4X4X4X4X4XS L.K.] ( f.4X4X% o ! F. Xc.  4X4X4X4X4X4X4X4X4X4X  c. XF.! o % 4X4Xf.( ] K.L.S 4X4X4X4X4X4X4X4X4X4X4X4X",
"4X4X4X4X4X4X4X4X4X4X4X    4X  , 4X4X4X4X4X  O W E           4X4X4X4X          E W O   4X4X4X4X4X,   4X    4X4X4X4X4X4X4X4X4X4X4X",
"4X4X4X4X4X4X4X4X4X4X4X4X4X4X4X4X4X4X4X4X4X4X4X4X4X4X4X      4X4X4X4X      4X4X4X4X4X4X4X4X4X4X4X4X4X4X4X4X4X4X4X4X4X4X4X4X4X4X4X",
"4X4X4X4X4X4X4X4X4X4X4X4X4X4X4X4X4X4X4X4X4X4X4X4X4X4X4X4X4X4X4X4X4X4X4X4X4X4X4X4X4X4X4X4X4X4X4X4X4X4X4X4X4X4X4X4X4X4X4X4X4X4X4X4X",
"4X4X4X4X4X    4X4X4X4X4X4X4X4X4X4X4X  4X4X4X4X4X4X4X4X4X4X4X4X4X4X4X4X4X4X4X4X4X4X4X4X4X4X  4X4X4X4X4X4X4X4X4X4X4X  4X4X4X4X4X4X",
"4X4X4X4X4X    4X4X4X4X4X4X4X. O y m & #   4X4X4X4X4X4X4Xo 4   4X4X  4 o 4X4X4X4X4X4X4X  # & m y O . 4X4X4X4X4X4X4X    4X4X4X4X4X",
"4X4X4X4X4X4X4X4X4X4X4X4X4X4Xo a ` X.S q   4X4X4X4X4XO o @ 5 @     @ 5 @ o O 4X4X4X4X4X  q S X.` a o 4X4X4X4X4X4X4X4X4X4X4X4X4X4X",
"4X4X4X4X4X4X4X4X4X4X4X4X4XO O B w.e.O.w o - 4X4X4Xi c p 2 c p o o p c 2 p c i 4X4X4X- o w O.e.w.B O O 4X4X4X4X4X4X4X4X4X4X4X4X4X",
"4X4X4X4X4Xo 4   4X4X4X4XX $ $ B Z.Q.l.V 0 : 4X4X4X{ h.3.J o.P < < P o.J 3.h.{ 4X4X4X: 0 V l.Q.Z.B $ $ X 4X4X4X4X  4 o 4X4X4X4X4X",
"4X4X4XO o @ 5 @   4X4X4X1 i u J [.,X^.e.R % % 4X( E.XXR.h.z._ p p _ z.h.R.XXE.( 4X% % R e.^.,X[.J u i 1 4X4X4X  @ 5 @ o O 4X4X4X",
"4X4Xi c p 2 c p o ; = 2 Y -.X...].<X.X4.9.5 t Z u.$X;X).M.>.2 x x 2 >.M.).;X$Xu.Z t 5 9.4..X<X]...X.-.Y 2 = ; o p c 2 p c i 4X4X",
"4X4X{ h.3.J o.P < c < n n.H.s.`  .T.4X4Xr o C z.~.U.Q > 4X4X4X4X4X4X4X4X> Q U.~.z.C o r 4X4XT. .` s.H.n.n < c < P o.J 3.h.{ 4X4X",
"4X( E.XXR.h.z._ p P 2 @ r z d N 4X4X4X4X4X4XO F W j   4X4X4X4X4X4X4X4X4X4X  j W F O 4X4X4X4X4X4XN d z r @ 2 P p _ z.h.R.XXE.( 4X",
"Z u.$X;X).M.>.2 x %.j.Y 4X4X4X4X4X4X4X4X4X4X4X4X4X4X4X4X4X4X4X4X4X4X4X4X4X4X4X4X4X4X4X4X4X4X4X4X4X4X4X4XY j.%.x 2 >.M.).;X$Xu.Z ",
"z.~.U.Q > 4X4X4X4X4X4X4X4X4X4X4X4X4X4X7 o 4X4X4X4X4X4X4X4X4X4X4X4X4X4X4X4X4X4X4X4X4X4Xo 7 4X4X4X4X4X4X4X4X4X4X4X4X4X4X> Q U.~.z.",
"F W j   4X4X4X4X4X4X4X4X4X4X4X4X4X4X4X4X4X4X4X4X4X4X4X4X4X4X4X4X4X4X4X4X4X4X4X4X4X4X4X4X4X4X4X4X4X4X4X4X4X4X4X4X4X4X4X4X  j W F ",
"4X4X4X4X4X4X4X4X4X4X4X4X4X4X4X4X4X4X4X4X4X4X4X4X4X4X4X4X4X4X4X4X4X4X4X4X4X4X4X4X4X4X4X4X4X4X4X4X4X4X4X4X4X4X4X4X4X4X4X4X4X4X4X4X",
"4X4X4X4X4X4X4Xp 9 O 4X4X4X4X4X4X4X4X4X4X+ * 4X4X4X4X4X4X4X4XM D D M 4X4X4X4X4X4X4X4X* + 4X4X4X4X4X4X4X4X4X4XO 9 p 4X4X4X4X4X4X4X",
"4X4X4X4Xo X t K S e ;   4X4X4X4X4X4Xo   * 4 o   4X4X4X4X4Xf ` *.*.` f 4X4X4X4X4X  o 4 *   o 4X4X4X4X4X4X  ; e S K t X o 4X4X4X4X",
"4X4X4X4XX ; +.p.e.` p   = 4X4X4X4Xo O O & 2 ; .   4X4X4X6 q.v.....v.q.6 4X4X4X  . ; 2 & O O o 4X4X4X4X=   p ` e.p.+.; X 4X4X4X4X",
"4X4X4XO $ $ X.=.;.) 1 O 3 4X4X4X2 S P c a S M % 2 ; X l S.>X+XC.C.+X>XS.l X ; 2 % M S a c P S 2 4X4X4X3 O 1 ) ;.=.X.$ $ O 4X4X4X",
"4X4X4XO % & O.|.}.B.~ h - G 4X4XT A.G.g.$.y._ q b n 8 5 0.OX(.4X4X(.OX0.5 8 n b q _ y.$.g.G.A.T 4X4XG - h ~ B.}.|.O.& % O 4X4X4X",
"4X4Xw v B n 1.*X-X/.t.| 6 ; q K k.=XoXI.l.8.J g / } I ; W 4X4X4X4X4X4XW ; I } / g J 8.l.I.oX=Xk.K q ; 6 | t./.-X*X1.n B v w 4X4X",
"4Xq I 4.y.( 6.#X&X'.<.,.6 t H 4.Y.:X{.P.x.:.4Xg [ l.0.4X4X4X4X4X4X4X4X4X4X0.l.[ g 4X:.x.P.{.:XY.4.H t 6 ,.<.'.&X#X6.( y.4.I q 4X",
"4Xn 7.D.N.^ ! 5.4X4X4X% o c &.J.`.d.d 4X4X4X4X4X4X4X4X4X4X4X4X4X4X4X4X4X4X4X4X4X4X4X4X4X4Xd d.`.J.&.c o % 4X4X4X5.! ^ N.D.7.n 4X",
"    4X4XO , 4X4X4X4X4X4X4XO k W U @   4X4X4X4X4X4X4X4X4X4X4X4X4X4X4X4X4X4X4X4X4X4X4X4X4X4X  @ U W k O 4X4X4X4X4X4X4X, O 4X4X    ",
"4X4X4X4X4X, 4X4X4X4X4X4X4XO k W U @ 4X4X4X4X4X4X4X4X4X4X4X4X4X4X4X4X4X4X4X4X4X4X4X4X4X4X4X  @ U W k O 4X4X4X4X4X4X4X, O 4X4X    ",
"4Xn 7.D.N.^ ! 4X4X4X4X4Xo c &.J.`.d.d 4X4X4X4X4X4X4X4X4X4X4X4X4X4X4X4X4X4X4X4X4X4X4X4X4X4Xd d.`.J.&.c o % 4X4X4X5.! ^ N.D.7.n 4X",
"4Xq I 4.y.( 6.#X&X4X4X,.6 t H 4.Y.:X{.P.4X4X4Xg [ l.4X4X4X4X4X4X4X4X4X4X4X0.l.[ g 4X:.x.P.{.:XY.4.H t 6 ,.<.'.&X#X6.( y.4.I q 4X",
"4X4Xw v B n 1.*X-X/.t.| 6 ; 4X4Xk.=XoXI.l.8.J g / } I 4X4X4X4X4X4X4X4XW ; I } / g J 8.l.I.oX=Xk.K q ; 6 | t./.-X*X1.n B v w 4X4X",
"4X4X4XO % & O.|.}.B.~ h - 4X4X4XT A.G.g.$.y._ q b n 8 5 0.4X4X4X4X(.OX0.5 8 n b q _ y.$.g.G.A.T 4X4XG - h ~ B.}.|.O.& % O 4X4X4X",
"4X4X4X4X$ $ X.=.;.) 1 O 3 4X4X4X4XS P c a S M % 2 ; 4X4XS.>X+X4XC.+X>XS.l X ; 2 % M S a c P S 2 4X4X4X3 O 1 ) ;.=.X.$ $ O 4X4X4X",
"4X4X4X4XX ; +.p.e.` p   4X4X4X4X4X4XO O & 2 ; . 4X4X4X4X6 q.v.....v.q.6 4X4X4X  . ; 2 & O O o 4X4X4X4X=   p ` e.p.+.; X 4X4X4X4X",
"4X4X4X4X4XX t K S e ;   4X4X4X4X4X4X4X  * 4 o 4X4X4X4X4X4X4X` *.*.` f 4X4X4X4X4X  o 4 *   o 4X4X4X4X4X4X  ; e S K t X o 4X4X4X4X",
"4X4X4X4X4X4X4X4X9 O 4X4X4X4X4X4X4X4X4X4X4X4X4X4X4X4X4X4X4X4X4XD D M 4X4X4X4X4X4X4X4X* + 4X4X4X4X4X4X4X4X4X4XO 9 p 4X4X4X4X4X4X4X",
"4X4X4X4X4X4X4X4X4X4X4X4X4X4X4X4X4X4X4X4X4X4X4X4X4X4X4X4X4X4X4X4X4X4X4X4X4X4X4X4X4X4X4X4X4X4X4X4X4X4X4X4X4X4X4X4X4X4X4X4X4X4X4X4X",
"F W j 4X4X4X4X4X4X4X4X4X4X4X4X4X4X4X4X4X4X4X4X4X4X4X4X4X4X4X4X4X4X4X4X4X4X4X4X4X4X4X4X4X4X4X4X4X4X4X4X4X4X4X4X4X4X4X4X4X  j W F ",
"z.~.U.Q 4X4X4X4X4X4X4X4X4X4X4X4X4X4X4X4X4X4X4X4X4X4X4X4X4X4X4X4X4X4X4X4X4X4X4X4X4X4X4Xo 7 4X4X4X4X4X4X4X4X4X4X4X4X4X4X> Q U.~.z.",
"Z u.$X;X).4X4X4Xx %.j.4X4X4X4X4X4X4X4X4X4X4X4X4X4X4X4X4X4X4X4X4X4X4X4X4X4X4X4X4X4X4X4X4X4X4X4X4X4X4X4X4XY j.%.x 2 >.M.).;X$Xu.Z ",
"4X4XE.XXR.h.z._ p P 2 @ r z d 4X4X4X4X4X4X4XO F W j 4X4X4X4X4X4X4X4X4X4X4X  j W F O 4X4X4X4X4X4XN d z r @ 2 P p _ z.h.R.XXE.( 4X",
"4X4X{ h.3.J o.P < c < n n.H.s.`  .4X4X4X4Xo C z.~.U.Q 4X4X4X4X4X4X4X4X4X> Q U.~.z.C o r 4X4XT. .` s.H.n.n < c < P o.J 3.h.{ 4X4X",
"4X4X4Xc p 2 c p o ; 4X2 Y -.X...].<X.X4X9.5 t Z u.$X;X).4X4X4Xx x 2 >.M.).;X$Xu.Z t 5 9.4..X<X]...X.-.Y 2 = ; o p c 2 p c i 4X4X",
"4X4X4X4Xo @ 5 @ 4X4X4X4X1 i u J [.,X^.e.R % 4X4X4XE.XXR.h.z._ p p _ z.h.R.XXE.( 4X% % R e.^.,X[.J u i 1 4X4X4X  @ 5 @ o O 4X4X4X",
"4X4X4X4X4Xo 4 4X4X4X4X4X4X$ $ B Z.Q.l.V 0 : 4X4X4X{ h.3.J o.P < < P o.J 3.h.{ 4X4X4X: 0 V l.Q.Z.B $ $ X 4X4X4X4X  4 o 4X4X4X4X4X",
"4X4X4X4X4X4X4X4X4X4X4X4X4X4XO B w.e.O.w o - 4X4X4X4Xc p 2 c p o o p c 2 p c i 4X4X4X- o w O.e.w.B O O 4X4X4X4X4X4X4X4X4X4X4X4X4X",
"4X4X4X4X4X4X4X4X4X4X4X4X4X4Xo a ` X.S q   4X4X4X4X4X4Xo @ 5 @ 4X  @ 5 @ o O 4X4X4X4X4X  q S X.` a o 4X4X4X4X4X4X4X4X4X4X4X4X4X4X",
"4X4X4X4X4X4X4X4X4X4X4X4X4X4X4X4Xy m & 4X4X4X4X4X4X4X4X4Xo 4 4X4X4X  4 o 4X4X4X4X4X4X4X  # & m y O . 4X4X4X4X4X4X4X    4X4X4X4X4X",
"4X4X4X4X4X4X4X4X4X4X4X4X4X4X4X4X4X4X4X4X4X4X4X4X4X4X4X4X4X4X4X4X4X4X4X4X4X4X4X4X4X4X4X4X4X  4X4X4X4X4X4X4X4X4X4X4X    4X4X4X4X4X",
"4X4X4X4X4X4X4X4X4X4X4X4X4X4X4X4X4X4X4X4X4X4X4X4X4X4X4X4X4X4X4X4X4X4X4X4X4X4X4X4X4X4X4X4X4X4X4X4X4X4X4X4X4X4X4X4X4X4X4X4X4X4X4X4X",
"4X4X4X4X4X4X4X4X4X4X4X4X4X4X4X4X4X4X4X4X4X4X4X4X4X4X4X4X4X4X4X4X4X4X      4X4X4X4X4X4X4X4X4X4X4X4X4X4X4X4X4X4X4X4X4X4X4X4X4X4X4X",
"4X4X4X4X4X4X4X4X4X4X4X4X4X4X4X, 4X4X4X4X4X4XO W E     4X4X4X4X4X4X4X          E W O   4X4X4X4X4X,   4X    4X4X4X4X4X4X4X4X4X4X4X",
"4X4X4X4X4X4X4X4X4X4X4X4XS L.K.] ( 4X4X4X4Xo ! F. Xc.  4X4X4X4X4X4X4X4X4X4X  c. XF.! o % 4X4Xf.( ] K.L.S 4X4X4X4X4X4X4X4X4X4X4X4X",
"4X4X4X4X4X4X4X4X4X4X4X4X; L @.! q.2X%Xy.m.; q c a.3X@XV.4X4Xn i.i.n 2 ,.V.@X3Xa.c q ; m.y.%X2Xq.! @.L ; 4X4X4X4X4X4X4X4X4X4X4X4X",
"4X4X4X4X4X4X4X4X4X4X4X4X4X. & $ 2.1X!.r.C   4X4X! W._.4.b.#.q D D q #.b.4._.W.! 4X4X  C r.!.1X2.$ & . 4X4X4X4X4X4X4X4X4X4X4X4X4X",
"4X4X4X4X4X4X4X4X4X4X4X4X4X4X$ O =.=.4.1 O 4X4X4X4XK ' 2 K A O p p O A K 2 ' K & 4X4X7 O 1 4.=.=.O $ 4X4X4X4X4X4X4X4X4X4X4X4X4X4X",
"4X4X4X4X4X4X4X4X4X4X4X4X4X4X  $ e.a.=.c   4X4X4X4X4Xo O 2 ;   4X    ; 2 O o   4X4X4X4X  c =.a.e.$   4X4X4X4X4X4X4X4X4X4X4X4X4X4X",
"4X4X4X4X4X4X4X4X4X4X4X4X4X4X4X  ; P < %   4X4X4X4X4X4X  s   4X4X4X4X  s   4X4X4X4X4X4X  % < P ;   O 4X4X4X4X4X4X4X4X4X4X4X4X4X4X",
"4X4X4X4X4X4X4X4X4X4X4X4X4X4X4X4X4X4X4X4X4X4X4X4X4X4X4X4X4X4X4X4X4X4X4X4X4X4X4X4X4X4X4X4X4X  4X4X4X4X4X4X4X4X4X4X4X4X4X4X4X4X4X4X"
};
