/* XPM */
static char *result[] = {
/* columns rows colors chars-per-pixel */
"62 62 240 2 ",
"   c #00041C",
".  c #00091B",
"X  c #17171B",
"o  c #2D1717",
"O  c #1D211E",
"+  c #1D2A1F",
"@  c #39271B",
"#  c #2C2E1E",
"$  c #000D20",
"%  c #001522",
"&  c #041D25",
"*  c #0A1F26",
"=  c #031E28",
"-  c #0B1824",
";  c #131A23",
":  c #271D25",
">  c #3F1534",
",  c #042027",
"<  c #0C2026",
"1  c #0E212B",
"2  c #132325",
"3  c #1B2525",
"4  c #1D2A24",
"5  c #132328",
"6  c #152725",
"7  c #1E3020",
"8  c #222626",
"9  c #242B24",
"0  c #292D24",
"q  c #232C28",
"w  c #2A2629",
"e  c #342C2B",
"r  c #3B2D2C",
"t  c #372927",
"y  c #2B3123",
"u  c #333424",
"i  c #3B3522",
"p  c #3C332A",
"a  c #393726",
"s  c #3A2733",
"d  c #2E2538",
"f  c #46361C",
"g  c #52341B",
"h  c #66391C",
"j  c #783915",
"k  c #6B3606",
"l  c #4F1233",
"z  c #761638",
"x  c #6D1A2A",
"c  c #432D2C",
"v  c #462D28",
"b  c #56292B",
"n  c #4C322B",
"m  c #473525",
"M  c #5C3A24",
"N  c #583528",
"B  c #4C2934",
"V  c #452733",
"C  c #5C2A33",
"Z  c #582737",
"A  c #583131",
"S  c #693826",
"D  c #7D3C2B",
"F  c #783928",
"G  c #672837",
"H  c #732A35",
"J  c #72243C",
"K  c #7B2439",
"L  c #7A3333",
"P  c #702B2C",
"I  c #574319",
"U  c #6B4319",
"Y  c #7B4616",
"T  c #75410F",
"R  c #4A4A2C",
"E  c #764328",
"W  c #624925",
"Q  c #776A21",
"!  c #6A2342",
"~  c #732541",
"^  c #544546",
"/  c #853817",
"(  c #921D3E",
")  c #863A29",
"_  c #983A2A",
"`  c #84263A",
"'  c #873831",
"]  c #913235",
"[  c #A73739",
"{  c #C4383C",
"}  c #9B4D01",
"|  c #964605",
" . c #884718",
".. c #944A1A",
"X. c #99491B",
"o. c #924B0A",
"O. c #AA4700",
"+. c #B54B00",
"@. c #A45301",
"#. c #AC5401",
"$. c #AA5506",
"%. c #B35501",
"&. c #BB5200",
"*. c #B55A00",
"=. c #BC5C00",
"-. c #B4580B",
";. c #A85215",
":. c #B55718",
">. c #A14A16",
",. c #B26806",
"<. c #8A4529",
"1. c #974627",
"2. c #9D4534",
"3. c #95572E",
"4. c #A44F25",
"5. c #B75727",
"6. c #AC4834",
"7. c #AF522E",
"8. c #A47723",
"9. c #C35D00",
"0. c #C75603",
"q. c #C45B17",
"w. c #D05F00",
"e. c #EB5F1B",
"r. c #C36200",
"t. c #CB6300",
"y. c #C86906",
"u. c #D66606",
"i. c #CA6217",
"p. c #D76719",
"a. c #D47A10",
"s. c #E26C03",
"d. c #EC771A",
"f. c #ED6D19",
"g. c #C55B28",
"h. c #CC5430",
"j. c #DD6523",
"k. c #DA6925",
"l. c #D96836",
"z. c #D3722D",
"x. c #E76B28",
"c. c #F46B29",
"v. c #E97329",
"b. c #F5762D",
"n. c #EC6C33",
"m. c #E56937",
"M. c #F66A39",
"N. c #EE7233",
"B. c #E97734",
"V. c #F3723B",
"C. c #FC743D",
"Z. c #F97836",
"A. c #891C42",
"S. c #832040",
"D. c #BA4B45",
"F. c #E25840",
"G. c #F96A46",
"H. c #FD7445",
"J. c #FF734B",
"K. c #FE7D46",
"L. c #FF7A54",
"P. c #ED6C49",
"I. c #8E8733",
"U. c #AD8F2D",
"Y. c #CB8D12",
"T. c #E98800",
"R. c #EC9113",
"E. c #F0A80E",
"W. c #EC872E",
"Q. c #F78528",
"!. c #FA992B",
"~. c #F88639",
"^. c #FC9838",
"/. c #E98F30",
"(. c #D0AE35",
"). c #F9A938",
"_. c #FFB73B",
"`. c #E9AF3F",
"'. c #DB8530",
"]. c #FFC739",
"[. c #A9A566",
"{. c #DD8040",
"}. c #EB8143",
"|. c #FE8446",
" X c #FE8C45",
".X c #FF8D4C",
"XX c #FF854B",
"oX c #FF9445",
"OX c #FF9B46",
"+X c #FF934C",
"@X c #FF9B4E",
"#X c #FF8855",
"$X c #FF9A56",
"%X c #EB8750",
"&X c #DCAE51",
"*X c #FFAD45",
"=X c #FFA24C",
"-X c #FFAE4B",
";X c #FEA445",
":X c #FFB54B",
">X c #FFBA45",
",X c #FFAB54",
"<X c #FFA858",
"1X c #FFBC54",
"2X c #FFB351",
"3X c #EDB540",
"4X c #FF9B6A",
"5X c #FFA564",
"6X c #FFB370",
"7X c #FCC747",
"8X c #FFD248",
"9X c #FFCC52",
"0X c #FFC659",
"qX c #FFD25B",
"wX c #FFDB57",
"eX c #FFC96A",
"rX c #FFD46D",
"tX c #FFD664",
"yX c #FFCE76",
"uX c #FFDE73",
"iX c #FFD67A",
"pX c #FFE560",
"aX c #FFB38F",
"sX c #FFD887",
"dX c #FFC295",
"fX c #F9D28F",
"gX c #FFE587",
"hX c #FFE89A",
"jX c #FFCEA9",
"kX c #FFDBA6",
"lX c #FFDCB4",
"zX c #FFE5A8",
"xX c #FFE4BA",
"cX c #FFF5B9",
"vX c #FFE9C8",
"bX c #FFF3D5",
"nX c #FFEDD6",
"mX c #FFF6E7",
"MX c #FEFFF8",
"NX c None",
/* pixels */
"NXNXNXNXNXNXNXNXNXNXNXNXNXNXNXNXNXNXNXNXNXNXNXNXNXNXNXNXNXNXNXNXNXNXNXNXNXNXNXNXNXNXNXNXNXNXNXNXNXNXNXNXNXNXNXNXNXNXNXNXNXNX",
"NXNXNXNXNXNXNXNXNXNXNXNXNXNXNXNXNXNXNXNXNXNXNXNXNXNXNXNXNXNXNXNXNXNXNXNXNXNXNXNXNXNXNXNXNXNXNXNXNXNXNXNXNXNXNXNXNXNXNXNXNXNX",
"NXNXNXNXNXNXNXNXNXNXNXNXNXNXNXNXNXNXNXNXNXNXNXNXNXNXNXNXNXNXNXNXNXNXNXNXNXNXNXNXNXNXNXNXNXNXNXNXNXNXNXNXNXNXNXNXNXNXNXNXNXNX",
"NXNXNXNXNXNXNXNXNXNXNXNXNXNXNXNXNXNXNXNXNXNXNXNXNXNXNXNXNXNXNXNXNXNXNXNXNXNXNXNXNXNXNXNXNXNXNXNXNXNXNXNXNXNXNXNXNXNXNXNXNXNX",
"NXNXNXNXNXNXNXNXNXNXNXNXNXNXNXNXNXNXNXNXNXNXNXNXNXNXNXNXNXNXNXNXNXNXNXNXNXNXNXNXNXNXNXNXNXNXNXNXNXNXNXNXNXNXNXNXNXNXNXNXNXNX",
"NXNXNXNXNXNXNXNXNXNXNXNXNXNXNXNXNXNXNXNXNXNXNXNXNXNXNXNXNXNXNXNXNXNXNXNXNXNXNXNXNXNXNXNXNXNXNXNXNXNXNXNXNXNXNXNXNXNXNXNXNXNX",
"NXNXNXNXNXNXNXNXNXNXNXNXNXNXNXNXNXNXNXNXNXNXNXNXNXNXNXNXNXNXNXNXNXNXNXNXNXNXNXNXNXNXNXNXNXNXNXNXNXNXNXNXNXNXNXNXNXNXNXNXNXNX",
"NXNXNXNXNXNXNXNXNXNXNXNXNXNXNXNXNXNXNXNXNXNXNXNXNXNXNXNXNXNXNXNXNXNXNXNXNXNXNXNXNXNXNXNXNXNXNXNXNXNXNXNXNXNXNXNXNXNXNXNXNXNX",
"NXNXNXNXNXNXNXNXNXNXNXNXNXNXNXNXNXNXNXNXNX< NXNXNXNXNXNXNXNXNXNXNXNXNXNXNXNXNXNXNXNXNXNXNXNXNXNXNXNXNXNXNXNXNXNXNXNXNXNXNXNX",
"NXNXNXNXNXNXNXNXNXNXNXNXNXNXNXNXNXNX< < < < < NXNX< * < * * * * < < NXNXNXNXNXNXNXNXNXNXNXNXNXNXNXNXNXNXNXNXNXNXNXNXNXNXNXNX",
"NXNXNXNXNXNXNXNXNXNXNXNXNXNXNXNXNX< < < * < < * * * = & < , 2 * * & & * * NXNXNXNXNXNXNXNXNXNXNXNXNXNXNXNXNXNXNXNXNXNXNXNXNX",
"NXNXNXNXNXNXNXNXNXNXNXNXNXNXNXNXNXNX* * * < < , , < 2 2 3 4 6 3 8 8 2 * * * * NXNXNXNXNXNXNXNXNXNXNXNXNXNXNXNXNXNXNXNXNXNXNX",
"NXNXNXNXNXNXNXNXNXNXNXNXNXNXNX2 * * < 3 6 < < < 4 f S L Z i f u p B d 3 q 4 6 ; * * * < NXNXNXNXNXNXNXNXNXNXNXNXNXNXNXNXNXNX",
"NXNXNXNXNXNXNXNXNXNXNXNXNXNX0 2 = 2 0 9 4 , 7 a Y 1.5.h.G.k.:.@...1.W 0 4 9 0 0 6 * * < * < NXNXNXNXNXNXNXNXNXNXNXNXNXNXNXNX",
"NXNXNXNXNXNXNXNXNXNXNXNXNXNX< 2 8 y y e B e y ..g.#.%.q.7.7.g.g.} } #. .m 9 0 n y 2 < * < < < NXNXNXNXNXNXNXNXNXNXNXNXNXNXNX",
"NXNXNXNXNXNXNXNXNXNX< NXNX* 2 8 u y p J A.c  .u.p.q.:.7.g.l.5.;.:.1.X...<.S q u A a 9 0 8 < * * NXNXNXNXNXNXNXNXNXNXNXNXNXNX",
"NXNXNXNXNXNXNXNXNX* * = 2 9 y 9 6 3 e G v U =.t.+.e.~.R.h.h.l.V.H.P.D.7.5.;.G 9 e b p y y 5 NX* NXNXNXNXNXNXNXNXNXNXNXNXNXNX",
"NXNXNXNXNXNXNXNX< * * * 3 y 0 * < 4 7 m Y / +.&.~.aXzXlX#Xn.5.L h.V.Z.V.i.%.$.2.A s e 0 0 q NXNXNXNXNXNXNXNXNXNXNXNXNXNXNXNX",
"NXNXNXNXNXNXNX< < < * < 0 u 2 * q y n <.F _ u.<XlXmXMXMXcX;Xc.q... .o.;.:.i.k.i.5.E 6 4 u y 0 NXNXNXNXNXNXNXNXNXNXNXNXNXNXNX",
"NXNXNXNXNXNXNX< * < < 2 8 2 & 4 9 B _ X.G m.0XhXgXzXbXjX&Xz.F.j.#.#.@.o.1.:.i.=.t.k.<.r b u y 8 NXNXNXNXNXNXNXNXNXNXNXNXNXNX",
"NXNXNXNXNXNXNXNX= = = 2 2 & 2 n H J ) j :.:XhXiX_.*X}.J l l Z J <.q.t.r.o.o.p.n.,.0.u.' G p 9 y 5 NX< < NXNXNXNXNXNXNXNXNXNX",
"NXNXNXNX= d NXNX* - & & % - c ] ..E _ &.2XqXuX0X!.j.l l ~ J J K ~ H 6.p.=.9.G.#X].a.+.$.! J y 2 < * < < < NXNXNXNXNXNXNXNXNX",
"NXNXV N ;.S C S / / h b P <.-.} @.=.G.:XsXtX8XqX~.O.| 5.g.7.S D ) ` ! 2.*.t.n.J.1X9X,.#.<.! A 2 * * * * < NXNXNXNXNXNXNXNXNX",
"NXNXK D #.u.k.|.^.!.T.s.m.c.f.n.n.C.L.+X4X-X9X.Xp.&.T m n 8 2 3 t N ) K D t.Z.q.H.eXB.| %.J ~ r < 6 * * < NXNXNXNXNXNXNXNXNX",
"NXNXNXNXNX4.H.oX+X=X1X8X).N.m.m.V.V.M.G.n.~.b.M.X.O * & & * & = & * t D J L Z.p.q.C.P.H *.2.Z p 6 0 0 2 NXNXNXNXNXNXNXNXNXNX",
"NXNXNXNXNXNX: F q.c.Z.*X7X:X~.V.k.r.k.N.i.#.c.1.* & * < * * * * 5 = & O F Z h.C.*.=.*.G *.$.e q 0 y a 9 NXNXNXNXNXNXNXNXNXNX",
"NXNXNXNXNXNXNX- : h #.w.v.=X;Xv.x.y.R.:Xv.M.[ - % * 2 < < < * < < < = = O H 6.H.H.k.@...;.*.r y 0 9 y 0 NXNXNXNXNXNXNXNXNXNX",
"NXNXNXNXNXNXNX* & * w g | r.b.d.q.*.r./.$X<XU.0 -     % < < < < < < ; * & A 6.H.x.C.p.%.;.%.P p 0 3 0 0 < NXNXNXNXNXNXNXNXNX",
"NXNXNXNXNXNXNX< < , = 2 Y j g.x.i.t.u.9.y.^.1X3X(.I.R 3 . $ % * * < < < * 2 4.M.k.V.V.t.X.) y e u 2 w y 6 NXNXNXNXNXNXNXNXNX",
"NXNXNXNXNXNXNX< < ; = 0 1.! [ v.*...-.x.4.p.XX+X!.*X:X`.U.R e -     % * * & g c.x.n.J.u.D ! 9 c n 4 q y 2 * NXNXNXNXNXNXNXNX",
"NXNXNXNXNXNXNX< * * & f 1.J D.x.@.P S x.3.T _ F | t.Q.*XqX9X7X(.I.R ;   . % f p.0.m.J.p. .K m p G + 9 u 6 * < NXNXNXNXNXNXNX",
"NXNXNXNXNXNXNX< * * & i X.B l.p.*.-.) :.k.i X # t O @ 1.~.OX:X,X,X_.3X[.^ : i d.a.V.W.u.} ' e q b 4 3 y 5 * < NXNXNXNXNXNXNX",
"NXNXNXNXNX* * * < * & w U c p.k.=.x.G.:.d.E - 2 < , , & 8 b x L n.R.!.<X$X/.3X@XoXOXm.0.;.K S 0 p 4 * 2 2 * < NXNXNXNXNXNXNX",
"NXNXNXNXNX* 5 * < ; & 3 M h t.t.i.J.L.p.=.5.2 & < < & , % & , 2 : o P a.!.OX<X$X+XoX).|.m.S } ) M 4 = & * * NXNXNXNXNXNXNXNX",
"NXNXNXNXNX* < < < < , * c m @.c.H.J.J.n.#.:.t & < * < < < < 2 < = = - O I ,.Y.W.<XyX$X.X|.z.'.m.=.k : * = NXNXNXNXNXNXNXNXNX",
"NXNXNXNXNXNXNXNX< < 5 = 4 9 D H.G.H.H.J.p.4.0 * & * < < < < * * * * 6 &   o @ %XaXG.l.x.C.|.+X+X^.T.0.h ; . NXNXNXNXNXNXNXNX",
"NXNXNXNXNXNXNXNX* 2 4 3 2 9 w /.XXG.C.J.v.x.D v 3 * * < * * * * < < % $ o 8.fXjXdXb.O.@.%.=.u.b.L.#X|.C.B.3.w = NXNXNXNXNXNX",
"NXNXNXNXNXNXNXNXNX4 y y 4 4 8 Y.0XG.OX X X~.B.X._ t & & * * & & & & . W E.uXcXbXzX1X#.#.:.#.@.*.u.b.oX+X-X*XW.F w NXNXNXNXNX",
"NXNXNXNXNXNXNXNXNX3 y 0 y q 3  ._.$XG.oX=XXX=X!.i.b s 3 * = * - % o U.8XiXxXxXvXhXxXa.+.g.<.<. .g f R m W Y.!.~.5.Y NXNXNXNX",
"NXNXNXNXNXNXNXNXNX* q y p n q j u..X.X X=X:X9XqX).Q N u @ O O X F E.].pXxXmXvXkXgXdX=.} L J ' f + % % & % $ < q t  .0 NXNXNX",
"NXNXNXNXNXNXNXNXNXNX4 0 n S.3 h &.n.#X=XoXoX*X1X<XoXz.1.o.x ' ' y.rXsXxXmXmXzXsXeXz.O...} ] $.0 = < 3 NXNXNXNXNXNXNXNXNXNXNX",
"NXNXNXNXNXNXNXNXNXNXNX0 p ` V i t.&.V.0X9X XK.|. XJ.XXXXoX4X4X6XfXzXnXnXmXfXqXeXR.9.x.g.X.1.M * * 0 y NXNXNXNXNXNXNXNXNXNXNX",
"NXNXNXNXNXNXNXNXNXNXNXy 9 A A.t T 9.9.).pXwX>XoXK.K.H.OX0XeXsXiXuXsXjXjX5X>X8X_.y.s.F.[ ) D 8 = 4 0 NXNXNXNXNXNXNXNXNXNXNXNX",
"NXNXNXNXNXNXNXNXNXNXNXNX4 u H V *  .%.9.!.qXwX-XoXOX|.Z.eXgXuXsXyX7X,X^._.7X1X~.q.g.Z n M c * 2 9 8 NXNXNXNXNXNXNXNXNXNXNXNX",
"NXNXNXNXNXNXNXNXNXNXNXNX* 6 y i < < m / O.W.=X+XJ.@X XH.,XyXrX9XqX9X].pX:X@XF.[ K V q 9 u 5 = 3 4 * NXNXNXNXNXNXNXNXNXNXNXNX",
"NXNXNXNXNXNXNXNXNXNXNXNX* * 6 0 9 = * s Z K h.n.H.K.XXJ.J.~.^.).T./.^.W.P.{ z Z 9 4 u H V 6 < < < * NXNXNXNXNXNXNXNXNXNXNXNX",
"NXNXNXNXNXNXNXNXNXNXNXNX< < < < 2 * & & ; t r  .9.p.j.p.u.0.O.%.w.+.x z x V e 0 9 n A.` t * & * * NXNXNXNXNXNXNXNXNXNXNXNXNX",
"NXNXNXNXNXNXNXNXNXNXNXNXNX< * , < * < * & 2 w c N h  .} #.@.*.g.q.5.) N i 9 7 # n ( K w * * < < NXNXNXNXNXNXNXNXNXNXNXNXNXNX",
"NXNXNXNXNXNXNXNXNXNXNXNXNXNXNX< * NX* < < * 8 C G Z B b M W m e p a 4 9 9 0 0 8 e s ; & , NXNXNXNXNXNXNXNXNXNXNXNXNXNXNXNXNX",
"NXNXNXNXNXNXNXNXNXNXNXNXNXNXNXNXNXNXNX* < * = 3 V C H J C e 4 6 1 q w 3 4 2 6 < = * * = NXNXNXNXNXNXNXNXNXNXNXNXNXNXNXNXNXNX",
"NXNXNXNXNXNXNXNXNXNXNXNXNXNXNXNXNXNXNXNX< * * * & 2 w c C c y a c G N 0 3 < < * * < < NXNXNXNXNXNXNXNXNXNXNXNXNXNXNXNXNXNXNX",
"NXNXNXNXNXNXNXNXNXNXNXNXNXNXNXNXNXNXNXNXNX* * = & = * * < 3 9 0 0 9 q 4 2 * * < < < < * NXNXNXNXNXNXNXNXNXNXNXNXNXNXNXNXNXNX",
"NXNXNXNXNXNXNXNXNXNXNXNXNXNXNXNXNXNXNXNXNXNXNXNX< < < = = * < < < , * * * < < < < < * < NXNXNXNXNXNXNXNXNXNXNXNXNXNXNXNXNXNX",
"NXNXNXNXNXNXNXNXNXNXNXNXNXNXNXNXNXNXNXNXNXNXNXNXNXNXNX< * < * * * * * < NX< * < < NXNXNXNXNXNXNXNXNXNXNXNXNXNXNXNXNXNXNXNXNX",
"NXNXNXNXNXNXNXNXNXNXNXNXNXNXNXNXNXNXNXNXNXNXNXNXNXNXNXNXNXNXNXNXNXNXNXNXNXNX< < NXNXNXNXNXNXNXNXNXNXNXNXNXNXNXNXNXNXNXNXNXNX",
"NXNXNXNXNXNXNXNXNXNXNXNXNXNXNXNXNXNXNXNXNXNXNXNXNXNXNXNXNXNXNXNXNXNXNXNXNXNXNXNXNXNXNXNXNXNXNXNXNXNXNXNXNXNXNXNXNXNXNXNXNXNX",
"NXNXNXNXNXNXNXNXNXNXNXNXNXNXNXNXNXNXNXNXNXNXNXNXNXNXNXNXNXNXNXNXNXNXNXNXNXNXNXNXNXNXNXNXNXNXNXNXNXNXNXNXNXNXNXNXNXNXNXNXNXNX",
"NXNXNXNXNXNXNXNXNXNXNXNXNXNXNXNXNXNXNXNXNXNXNXNXNXNXNXNXNXNXNXNXNXNXNXNXNXNXNXNXNXNXNXNXNXNXNXNXNXNXNXNXNXNXNXNXNXNXNXNXNXNX",
"NXNXNXNXNXNXNXNXNXNXNXNXNXNXNXNXNXNXNXNXNXNXNXNXNXNXNXNXNXNXNXNXNXNXNXNXNXNXNXNXNXNXNXNXNXNXNXNXNXNXNXNXNXNXNXNXNXNXNXNXNXNX",
"NXNXNXNXNXNXNXNXNXNXNXNXNXNXNXNXNXNXNXNXNXNXNXNXNXNXNXNXNXNXNXNXNXNXNXNXNXNXNXNXNXNXNXNXNXNXNXNXNXNXNXNXNXNXNXNXNXNXNXNXNXNX",
"NXNXNXNXNXNXNXNXNXNXNXNXNXNXNXNXNXNXNXNXNXNXNXNXNXNXNXNXNXNXNXNXNXNXNXNXNXNXNXNXNXNXNXNXNXNXNXNXNXNXNXNXNXNXNXNXNXNXNXNXNXNX",
"NXNXNXNXNXNXNXNXNXNXNXNXNXNXNXNXNXNXNXNXNXNXNXNXNXNXNXNXNXNXNXNXNXNXNXNXNXNXNXNXNXNXNXNXNXNXNXNXNXNXNXNXNXNXNXNXNXNXNXNXNXNX"
};
