/* XPM */
static char *result[] = {
/* columns rows colors chars-per-pixel */
"64 64 230 2 ",
"   c #000000",
".  c #0D0A0A",
"X  c #090606",
"o  c #130D0D",
"O  c #16100E",
"+  c #151111",
"@  c #1B1615",
"#  c #261B18",
"$  c #3B1C19",
"%  c #1E221E",
"&  c #2B221B",
"*  c #35241E",
"=  c #3F301F",
"-  c #1C2224",
";  c #292927",
":  c #3D2925",
">  c #342625",
",  c #3A3037",
"<  c #5D2119",
"1  c #672C18",
"2  c #6B331D",
"3  c #71351E",
"4  c #783318",
"5  c #712B16",
"6  c #432925",
"7  c #48372C",
"8  c #55322E",
"9  c #543730",
"0  c #6F3821",
"q  c #713720",
"w  c #753C23",
"e  c #793E24",
"r  c #683C34",
"t  c #733A37",
"y  c #6D2620",
"u  c #5D1D19",
"i  c #3A4F37",
"p  c #55422C",
"a  c #584738",
"s  c #7C473D",
"d  c #7C5337",
"f  c #4B3948",
"g  c #3E4B4F",
"h  c #554950",
"j  c #784543",
"k  c #6A464F",
"l  c #70546F",
"z  c #616C60",
"x  c #796A73",
"c  c #766150",
"v  c #8B3F1E",
"b  c #992928",
"n  c #873532",
"m  c #B03331",
"M  c #DC2C1E",
"N  c #D6261D",
"B  c #DF301F",
"V  c #DD2E21",
"C  c #D52C25",
"Z  c #DE3222",
"A  c #DE3B25",
"S  c #DC332B",
"D  c #DC3B2B",
"F  c #D6382E",
"G  c #DB3B32",
"H  c #DA3832",
"J  c #E23B24",
"K  c #E13925",
"L  c #E43937",
"P  c #86411D",
"I  c #874726",
"U  c #964727",
"Y  c #874E32",
"T  c #8D563B",
"R  c #995C35",
"E  c #A8552C",
"W  c #AB552A",
"Q  c #9A673F",
"!  c #AD6837",
"~  c #B46F3A",
"^  c #DF472B",
"/  c #DC463A",
"(  c #DF563E",
")  c #E44423",
"_  c #E54A25",
"`  c #E2442A",
"'  c #E34B2D",
"]  c #EA4C2E",
"[  c #E9462B",
"{  c #E5542C",
"}  c #E65B2E",
"|  c #E85629",
" . c #E24B31",
".. c #E34437",
"X. c #E55B33",
"o. c #E95736",
"O. c #F45C37",
"+. c #F45833",
"@. c #F04F30",
"#. c #C56E35",
"$. c #EB632E",
"%. c #E66332",
"&. c #E76B36",
"*. c #EB6B33",
"=. c #E96D39",
"-. c #EB6234",
";. c #F9653A",
":. c #F96B3D",
">. c #F46239",
",. c #ED7335",
"<. c #EE7837",
"1. c #ED7D3A",
"2. c #EA733A",
"3. c #F27838",
"4. c #8A4845",
"5. c #954A49",
"6. c #8E5A47",
"7. c #A75351",
"8. c #B65C5A",
"9. c #986447",
"0. c #956F4C",
"q. c #A2684E",
"w. c #A66B55",
"e. c #AC765A",
"r. c #AE7A5D",
"t. c #A67354",
"y. c #B37B5D",
"u. c #B0765C",
"i. c #AE7D4B",
"p. c #844065",
"a. c #B37E62",
"s. c #AC6461",
"d. c #877F74",
"f. c #DB4944",
"g. c #DB554B",
"h. c #DA5145",
"j. c #DE5C55",
"k. c #E54945",
"l. c #E45748",
"z. c #E45B54",
"x. c #E55D59",
"c. c #C66F55",
"v. c #EC7648",
"b. c #F17A4E",
"n. c #E4645D",
"m. c #E66856",
"M. c #EC7754",
"N. c #F2724F",
"B. c #D96B67",
"V. c #D3736E",
"C. c #EA6B65",
"Z. c #EB6E6A",
"A. c #E56763",
"S. c #EA726D",
"D. c #E5716A",
"F. c #F27B66",
"G. c #E97772",
"H. c #7A8579",
"J. c #D3833F",
"K. c #ED833C",
"L. c #EE893E",
"P. c #F2853D",
"I. c #B98057",
"U. c #B88667",
"Y. c #C98759",
"T. c #D4924C",
"R. c #EE8D42",
"E. c #E88543",
"W. c #F18C42",
"Q. c #F48540",
"!. c #EF9343",
"~. c #EF9A46",
"^. c #E39D4B",
"/. c #F39648",
"(. c #E7985C",
"). c #EB8B53",
"_. c #EDA44A",
"`. c #F0A44B",
"'. c #F6A451",
"]. c #F3AD52",
"[. c #F5AD58",
"{. c #E8B75D",
"}. c #F5BB5D",
"|. c #F6B659",
" X c #E7AC54",
".X c #C28B69",
"XX c #C89369",
"oX c #C38F70",
"OX c #CB9874",
"+X c #D7956D",
"@X c #EE826A",
"#X c #F18766",
"$X c #E89A69",
"%X c #F1956A",
"&X c #ED8376",
"*X c #D5A677",
"=X c #CEA374",
"-X c #E9A969",
";X c #EBA479",
":X c #F0B16D",
">X c #DEAE58",
",X c #F6C35F",
"<X c #F5C866",
"1X c #F1C87E",
"2X c #F8D169",
"3X c #7F6786",
"4X c #8E538C",
"5X c #89688E",
"6X c #71848A",
"7X c #A580B4",
"8X c #AC9F8F",
"9X c #C49F89",
"0X c #EB9E81",
"qX c #DAA888",
"wX c #DDB183",
"eX c #D0B298",
"rX c #E8A788",
"tX c #E8B695",
"yX c #F1B49A",
"uX c #ECB191",
"iX c #EBBEA0",
"pX c #C4B6A2",
"aX c #BAFFB3",
"sX c #EDC3A2",
"dX c #F0C3A3",
"fX c #F2D6AD",
"gX c #F1CF85",
"hX c #F3DFC0",
"jX c #FDFACC",
"kX c #C8F1FF",
/* pixels */
"                                                                                                                                ",
"  jX                                                                                                                            ",
"                                                                                aX                                              ",
"                                                i                                                                               ",
"  L O X                                                                                                                         ",
"  . L ..                                                                                                                        ",
"      L L o                                                                                                                     ",
"        b L $                                                                                                                   ",
"          O H b       X                                                                                       -                 ",
"              u u h   l k                                                                                   - 6X-               ",
"        <       g kXh   l 4Xf k.f.                                                                            -                 ",
"        L S #     4.b   O # 4Xn H ..o                                                                                           ",
"          L C m   o L H S L b f p.f.G t   n C.*                                                                                 ",
"            S N L     L C S C k., 4Xg.f.+   C.n.+                                                                               ",
"              k.C L     y S C N L < h t g.&   Z.x.t                                                                             ",
"        O 6     b C H X X X k.N M C k.    # & d 7.z.B.  &                 kX                                                    ",
"        @ O.).    6 K H #     n K V M G t 8 r #X#Xr x.C.#X#X                                                                    ",
"          * O.o.p   X L S 6     z.V M V S z.g.m.I.%X& A.x.F.M.>                                                                 ",
"              N.o.i.    k.G x.    ..V V K M F A / B.    5.j.F.N.t.                              aX                              ",
"                Q v.(.    x.F n.aX  / Z V Z Z Z Z S x.: 8.: n.8.M.:X                                                            ",
"                  & m.Q     t F C.  9 F K K K K Z Z Z k.n.h.t A.5.M.:X                                                          ",
"                    O Y.&     5.k.G.  G.A J J [ J Z Z Z G / / Z.Z.s M.#X+ B.&                                                   ",
"                    6           : j.8.  A.A ] @.+.[ Z V Z A V A Z.9 * %X#XA.g.7.                                                ",
"                    n.x..   @ 5X  . G.    n.D @.+.O.] A Z Z V B G       $X%XZ.g.G.                      z               -       ",
"        kX            A.j.6   h 7X+       j g.` O.;.O.@.J Z K M B C.    > i.0.t z.S.                  z H.z                     ",
"                      z Z.x.t   f 7X+     s.h.D ] ;.;.;.+.J K K Z D z.n./ z.B.  O B.8.  , ;             z                       ",
"                        z 9 A.+   @ x X     &X/ @.;.;.;.>.] Z ) ) A Z B V M D z.:   9     3Xh X                                 ",
"                              *     + f     X x.] ;.:.;.O.@.A A ' _ ) Z V K M Z g.8 .   kX  5Xh                                 ",
"                                        kXX   6./ ] ;.:.:.' A ' ^ %.%._ ) K Z B Z / / *       5Xh                               ",
"                                  A.9           D.A o.:.:.;.` ^ } { *.,.| ) ) J B B Z l.    4.o l l                             ",
"                                  & x.5.        s / ' >.:.:.+.` ' $.$.%.3.| _ ) J B B A 8.    7.  , ,                           ",
"                                    6 x.8.        n.' :.:.v.>.' ' ' %.$.,.P.$.| _ J Z J l.      +   X                           ",
"                                      * x.G.      g.K  .;.v.O. . .X.X.X.%.2.K.,.| ) ) ) ) z.Y   n.h.m.B.                        ",
"                                      j : A.Z.    G.D J O.:. . .^ X.&.%.%.%.K.L.P.$.| | _ ) ) _ o. .) )  .m.                    ",
"                                      c.x.r Z.S.  j / J O.:.o.` ..^ =.=.&.2.K.L././.3.$.| _ _ _ ) ) ) ) ) ' m.                  ",
"                                      - A.g.8.Z.B.  S.^ ] ;.;... . .X.=.2.1.R.~.`.|.'.P.,.$.$.*.$.| _ _ _ _ ' C.o               ",
"                                          8.x.8.S.V.  G.l. .O.O.` X./ &.&.E.R.~._.].|.|.'././.W.K.<.<.,.*.{ _ ^ m.o             ",
"                      ;                     6 B.4.B.j   7 g.K o. .X.%.X.&.K.~.~._.].|.}.}.[.'.'./.L.W.Q.W.K.,.*.{ &X            ",
"                    ; z -                     @ D.> O     j A.^  .' &.&.2.1.~._.`.].|.,X,X|.[.(.(.$X$X$X$X#X).v.1.v.a           ",
"      g               -                           t d t.      M.` D { %.2.L.L.~.`.].,X,X,X:X-XuXuX;X;XrX0XrXrX;XY.K.).7 kX      ",
"                                                    @ %X#X    V.' ^ ^ } %.L.L.L._.,X,X,X*X*XwXdXuX+X+XXX+XyXuXyXuX+XK.$X9X      ",
"                                                      7 F.%X  X ( _ A { } K.L.L.~._.,X{.wXsXdXtXdXtX*XXX+XyXyXyXyXrXY.~.-X.     ",
"                                                          #X%X  w.l.{ { } &.L.L.L._.|.~ wXsXiXtXtXdXtXXX.XrXtXwXy.V.r.J.`.dX    ",
"                                                            %X%X    j M.$.&.L.L.L.].^.Y.=X*XiXtXuXtXrX=XXXa.OX*X6.9.q.! `.:X    ",
"                              aX                              ;X;X    M.{ ,.K.L.L.|.^.~ U.U.fXyX*XU.OXOX*XU.r.XX6.6.t.R _.{.h X ",
"                                                                6.p 9 l.{ ,.1.K.L.~.E.Y.*XXXiXdXU.6.r.U.XX*XU.r.r.t.I.Y T.,XpX  ",
"                                                                      M._ $.<.K.L.L.! Y.*Xe.U.qXa.w.U.qXtXeXqXU.r.t.U.d  X,XpX  ",
"                                                    kX                  &Xm.2.<.K.L.P W ! u.e.u.y.r.OXuXoX9.t.wXr.s Q Q  X<Xx   ",
"                                                                          : &XM.<.!.P U U q.q.q.e.e.oXrXi.3 T qXU.d I R  X2X;   ",
"                                                                            #X2.,.P.#.5 U w w w 9.t.oXqXq.w 0.U.y.Y I I {.gX    ",
"                                                                            7 v.*.P.E.3 q q 3 1 w s a.a.d d U.U.T U I e 2XfX    ",
"                                                                              @X*.,.K.I 1 q q q 3 0 Y T e e Y Y I E U T.2Xh     ",
"                g                                                             * N.2.3.#.5 4 3 3 3 3 w w w w e e E U ! 2XfX      ",
"              g 6Xg                                                             . #X=.*.W v 4 1 2 2 3 w w w e I E P >X1X-       ",
"                g                                                                 : M.*.*.E.R.U 5 2 2 4 w e 4 ~ >X,X2X8X        ",
"                                                                                      F.,.2.K./.#.E I R ~ ! ^.2X2X<XhX          ",
"                                                                                        @Xv.3.P././.'.[.|.}.<X,X1Xx             ",
"                                                                                          9 #Xb.Q.)./.'.'.-XgX8X                ",
"                                                                                                # a 0.c :                       ",
"            jX                                                                                                                  ",
"                                              aX                                aX                                              ",
"                                                                                                                                ",
"                                                                                                                                ",
"                                                                                                                                "
};
