/* XPM */
static char *result[] = {
/* columns rows colors chars-per-pixel */
"64 64 115 2 ",
"   c #144B76",
".  c #144E7B",
"X  c #16527E",
"o  c #19567F",
"O  c #165483",
"+  c #185683",
"@  c #175886",
"#  c #195A85",
"$  c #175789",
"%  c #195788",
"&  c #17598B",
"*  c #195B8B",
"=  c #1A5D92",
"-  c #1E6287",
";  c #1D638D",
":  c #1F688D",
">  c #1C6393",
",  c #1E6A94",
"<  c #1C6499",
"1  c #1E6B9A",
"2  c #1F709B",
"3  c #21678C",
"4  c #216A8F",
"5  c #216790",
"6  c #216D94",
"7  c #216D9B",
"8  c #247296",
"9  c #23739C",
"0  c #28779C",
"q  c #26799C",
"w  c #287C9D",
"e  c #1F6BA1",
"r  c #206BA1",
"t  c #2475A3",
"y  c #267BA4",
"u  c #287EA3",
"i  c #2472AB",
"p  c #277CAC",
"a  c #297DAC",
"s  c #297EB1",
"d  c #2A819E",
"f  c #2B83A4",
"g  c #2F8AA5",
"h  c #2B85AB",
"j  c #2E8AAC",
"k  c #308DA7",
"l  c #308CAC",
"z  c #2F90AF",
"x  c #3091AD",
"c  c #2B83B3",
"v  c #2E8AB3",
"b  c #2C85BC",
"n  c #2E8DBA",
"m  c #3084B4",
"M  c #318DB3",
"N  c #318DBB",
"B  c #3293B4",
"V  c #3896B7",
"C  c #3599B7",
"Z  c #3A9EB5",
"A  c #3293BB",
"S  c #369ABB",
"D  c #389BBB",
"F  c #3EA3B6",
"G  c #3CA3BB",
"H  c #40A8B7",
"J  c #41A5BB",
"K  c #42ABBC",
"L  c #43B0BF",
"P  c #4BB4BD",
"I  c #50B6BF",
"U  c #318CC2",
"Y  c #3295C3",
"T  c #359BC3",
"R  c #399EC1",
"E  c #3495CA",
"W  c #369CC9",
"Q  c #389DCA",
"!  c #3BA3C4",
"~  c #3EACC6",
"^  c #3BA5CA",
"/  c #3EAACA",
"(  c #3EB1C9",
")  c #43AEC2",
"_  c #40ADCA",
"`  c #43B3C5",
"'  c #49B7C5",
"]  c #44BBC5",
"[  c #4CBBC4",
"{  c #45B4CA",
"}  c #45BBCA",
"|  c #4BBDC8",
" . c #51BDC5",
".. c #52BEC8",
"X. c #5DBCC9",
"o. c #43B5D0",
"O. c #6BBFCF",
"+. c #4DC0C6",
"@. c #47C0CD",
"#. c #4CC3CA",
"$. c #53C1C6",
"%. c #54C5CC",
"&. c #5EC3CD",
"*. c #55C8CF",
"=. c #4DC3D1",
"-. c #54CCD3",
";. c #66C6D1",
":. c #6EC4D2",
">. c #64CCD4",
",. c #68CAD5",
"<. c #70C7D4",
"1. c #7DCDDB",
"2. c #67D0D8",
"3. c #6AD3DB",
"4. c None",
/* pixels */
"4.4.4.4.4.4.4.4.4.4.4.4.4.4.4.4.4.4.  4.4.4.4.4.4.4.4.4.4.4.4.4.4.4.4.4.4.4.4.4.4.4.4.4.4.. 4.4.4.4.4.4.4.4.4.4.4.4.4.4.4.4.4.4.",
"4.4.4.4.4.4.4.4.4.4.4.4.4.4.X   o 6 + o   4.4.4.4.4.4.X & X 4.4.4.4.X & . 4.4.4.4.4.4.. + # 8 O   X 4.4.4.4.4.4.4.4.4.4.4.4.4.4.",
"4.4.4.4.4.4.4.4.4.4.4.4.4.4.  X g k f : . 4.4.4.4.X O O # @ . X O . # * O O X 4.4.4.4.. : g k g +   4.4.4.4.4.4.4.4.4.4.4.4.4.4.",
"4.4.4.4.4.4.4.4.4.4.4.4.4.4.X X d f g # + % 4.4.# 8 u # 8 8 + ; ; + 8 9 # d 9 # 4.4.* X # h g f X + 4.4.4.4.4.4.4.4.4.4.4.4.4.4.",
"4.4.4.4.4.4.4.4.4.4.4.4.4.. X o g O.J k 6 X 4.4.q K L l S h ; 9 9 - h D m L K w 4.4.. 8 x K :.j + + X 4.4.4.4.4.4.4.4.4.4.4.4.4.",
"4.4.4.4.4.4.4.4.4.4.4.4.+ 8 d 8 m <. .j M # * , x 1. .A c * 6 M v 1 - s S $.1.B 6 ; % N j $.<.m q f 8 # 4.4.4.4.4.4.4.4.4.4.4.4.",
"4.4.4.4.4.4.4.4.4.4.4.4.4 V F d q v 4.4.+ O q D [ A O 4.4.4.4.4.4.4.4.4.4.O A +.D y O # 4.4.n q d G C 6 4.4.4.4.4.4.4.4.4.4.4.4.",
"4.4.4.4.4.4.4.4.4.4.4.. X 4.X # 4.4.4.4.4.O + y y O O O O O 4.4.4.4.O O O O $ y y + O 4.4.4.4.4.@ X 4.. . 4.4.4.4.4.4.4.4.4.4.4.",
"4.4.4.4.4.4.4.4.4.4.4.4.4.4.4.4.4.4.4.4.4.4.4.4.4.4.4.O O $ 4.4.4.4.+ O + 4.4.4.4.4.4.4.4.4.4.4.4.4.4.4.4.4.4.4.4.4.4.4.4.4.4.4.",
"4.4.4.4.4.4.4.4.4.4.4.4.4.4.4.4.4.4.4.4.4.4.4.4.4.4.4.4.4.4.4.4.4.4.4.4.4.4.4.4.4.4.4.4.4.4.4.4.4.4.4.4.4.4.4.4.4.4.4.4.4.4.4.4.",
"4.4.4.4.4.    4.4.4.4.4.4.4.4.4.4.4.O 4.4.4.4.4.4.4.4.4.4.4.4.4.4.4.4.4.4.4.4.4.4.4.4.4.4.O 4.4.4.4.4.4.4.4.4.4.4.. 4.4.4.4.4.4.",
"4.4.4.4.4..   4.4.4.4.4.4.4.X + ; 6 # @ $ 4.4.4.4.4.4.4.$ = $ 4.4.$ = $ 4.4.4.4.4.4.4.+ % * 8 > + + 4.4.4.4.4.4.4.X   4.4.4.4.4.",
"4.4.4.4.4.4.4.4.4.4.4.4.4.4.O : f h 9 > + 4.4.4.4.4.% @ @ > & $ + & = & $ @ 4.4.4.4.4.$ > q h f , O 4.4.4.4.4.4.4.4.4.4.4.4.4.4.",
"4.4.4.4.4.4.4.4.4.4.4.4.4.+ + 6 l M h ; $ & 4.4.4., 7 , > 1 1 $ $ 1 9 ; 1 7 1 4.4.4.& % , h B v 9 + $ 4.4.4.4.4.4.4.4.4.4.4.4.4.",
"4.4.4.4.4.. %   4.4.4.4.O + @ 9 D ) A 8 > & 4.4.4.c Y n y v f ; > y v p n Y c 4.4.4.= > 9 Y ` R 9 @ @ + 4.4.4.4.X % . 4.4.4.4.4.",
"4.4.4.X X X % O X 4.4.4.* : ; t ' ,.] B a & & 4.f ` -.` Y T h 1 1 h T Y ` -.` h 4.* * p B } ,.[ t , , * 4.4.4.O + & $ X + 4.4.4.",
"4.4.- 3 # # 3 3 o + $ * y j f c ` >.#.B U > , t A -.>.{ E b < 2 1 , b W { >.-.S t 1 > U A #.>.} v h v y ; $ % + : : # ; 3 * 4.4.",
"4.4.0 h u 8 u 0 # > # 6 N G A f c ~ 4.4.< $ 9 T } ( c > 4.4.4.4.4.4.4.4.< c ( } T t & < 4.4.` c h A ! A 7 ; , * y f 9 v M u 4.4.",
"4.8 F P J m M 0 : q * + > 7 > 7 4.4.4.4.4.4.@ i s 7 @ 4.4.4.4.4.4.4.4.4.4.$ r s y & 4.4.4.4.4.4.1 1 1 < % * u > u A n J I J q 4.",
"4 g [ X.J M a # : h N u 4.4.4.4.4.4.4.4.4.4.4.4.4.4.4.4.4.4.4.4.4.4.4.4.4.4.4.4.4.4.4.4.4.4.4.4.4.4.4.4.y A j , * s B K &. .l 6 ",
"l H Z t + 4.4.4.4.4.4.4.4.4.4.4.4.4.4.< % 4.4.4.4.4.4.4.4.4.4.4.4.4.4.4.4.4.4.4.4.4.4.& < 4.4.4.4.4.4.4.4.4.4.4.4.4.4.% t G K M ",
"5 7 ;   4.4.4.4.4.4.4.4.4.4.4.4.4.4.4.4.4.4.4.4.4.4.4.4.4.4.4.4.4.4.4.4.4.4.4.4.4.4.4.4.4.4.4.4.4.4.4.4.4.4.4.4.4.4.4.4.X 5 t 6 ",
"4.4.4.4.4.4.4.4.4.4.4.4.4.4.4.4.4.4.4.4.4.4.4.4.4.4.4.4.4.4.4.4.4.4.4.4.4.4.4.4.4.4.4.4.4.4.4.4.4.4.4.4.4.4.4.4.4.4.4.4.4.4.4.4.",
"4.4.4.4.4.4.4.: * + 4.4.4.4.4.4.4.4.4.4.& = 4.4.4.4.4.4.4.4.t p p t 4.4.4.4.4.4.4.4.= = 4.4.4.4.4.4.4.4.4.4.@ ; , 4.4.4.4.4.4.4.",
"4.4.4.4.O . ; 9 9 ; @ O 4.4.4.4.4.4.& $ = = & & 4.4.4.4.4.e v A B v e 4.4.4.4.4.$ & < = $ & 4.4.4.4.4.4.$ * , 9 q > + $ 4.4.4.4.",
"4.4.4.4.X + f M z f > O & 4.4.4.4.% & & ; > > & & 4.4.4.< E Q n A W E e 4.4.4.= & > < = = & & 4.4.4.4.& O , f B B h @ + 4.4.4.4.",
"4.4.4.o O + f l j u - @ = 4.4.4.> y f r 1 u t = > > = e / 3.-.^ ^ -.3./ i & > < > t y 2 2 h y > 4.4.4.= & ; f v j h @ @ + 4.4.4.",
"4.4.4.o + + f | [ S u , % i 4.4.y ! ~ E n Y h 1 2 t 1 < E -.o.4.4.o.-.E < 1 2 t , v Y n E / ^ h 4.4.i = 1 f R [ #.g # @ + 4.4.4.",
"4.4.# 4 6 6 h X.&.] M h = * > u T >.-._ E A a 2 c n c > s 4.4.4.4.4.4.c > s n h 1 p Y W ( -.>.W p < > > c A ] >.&.v 1 8 , ; 4.4.",
"4.# 9 h l q c  .$.] v b > , t N ` >.=.^ T b 4.1 v W E 4.4.4.4.4.4.4.4.4.4.E W v t 4.U E / =.2.} A y 1 > b v } *.%.c u M j 9 * 4.",
"4.: a V B q q v 4.4.4.% $ 6 v ~ } Y 1 4.4.4.4.4.4.4.4.4.4.4.4.4.4.4.4.4.4.4.4.4.4.4.4.4.4.e Y @.~ n 1 @ * 4.4.4.n u f A D c 6 4.",
"  X 4.4.O # 4.4.4.4.4.4.4.$ 7 p p & $ 4.4.4.4.4.4.4.4.4.4.4.4.4.4.4.4.4.4.4.4.4.4.4.4.4.4.$ = p s 7 & 4.4.4.4.4.4.4.* + 4.4.X . ",
"4.4.4.4.4.# 4.4.4.4.4.4.4.$ 7 a i & 4.4.4.4.4.4.4.4.4.4.4.4.4.4.4.4.4.4.4.4.4.4.4.4.4.4.4.& * p s 1 * 4.4.4.4.4.4.4.* + 4.4.X . ",
"4.3 a V B w q 4.4.4.4.4.+ 6 v ~ } Y 1 4.4.4.4.4.4.4.4.4.4.4.4.4.4.4.4.4.4.4.4.4.4.4.4.4.4.1 E @./ n 9 @ * 4.4.4.v u f A D c , 4.",
"4.# 9 h l q c [ $.4.4.b > , y N } >.#.^ 4.4.4.2 v W 4.4.4.4.4.4.4.4.4.4.4.E Q n e 4.b E / =.2.} A t < < b n @.*.%.b u v m 9 * 4.",
"4.4.# : 6 6 h &.&.] v s > & 4.4.T >.-._ E Y y 2 h n s 4.4.4.4.4.4.4.4.c > p n c 2 h Y W _ -.>.W y < ; > c B ] &.&.v , 8 : : 4.4.",
"4.4.4.o + + f | [ S u 6 % 4.4.4.a ! ~ Y n A j < 9 2 1 < E 4.4.4.4.o.-.E < 1 t t 1 v Y n E ~ ^ p 4.4.i = 1 f R | +.h @ @ + 4.4.4.",
"4.4.4.4.+ + f f l y * + = 4.4.4.4.y y 7 1 t t ; < > 4.4./ 3.-.4.^ -.3./ e & > < & t y 2 9 p y , 4.4.4.> @ > f v j h @ + + 4.4.4.",
"4.4.4.4.X @ f z j u > + 4.4.4.4.4.4.% * = < > @ 4.4.4.4.< E Q n U W E < 4.4.4.& = = > > @ * & 4.4.4.4.& + 1 h z B h @ O 4.4.4.4.",
"4.4.4.4.4.X ; 9 8 : % O 4.4.4.4.4.4.4.@ = = & 4.4.4.4.4.4.4.v A A v e 4.4.4.4.4.$ = = = $ & 4.4.4.4.4.4.O & > 9 q , + + 4.4.4.4.",
"4.4.4.4.4.4.4.4.* + 4.4.4.4.4.4.4.4.4.4.4.4.4.4.4.4.4.4.4.4.4.y y t 4.4.4.4.4.4.4.4.= = 4.4.4.4.4.4.4.4.4.4.+ ; ; 4.4.4.4.4.4.4.",
"4.4.4.4.4.4.4.4.4.4.4.4.4.4.4.4.4.4.4.4.4.4.4.4.4.4.4.4.4.4.4.4.4.4.4.4.4.4.4.4.4.4.4.4.4.4.4.4.4.4.4.4.4.4.4.4.4.4.4.4.4.4.4.4.",
"5 6 * 4.4.4.4.4.4.4.4.4.4.4.4.4.4.4.4.4.4.4.4.4.4.4.4.4.4.4.4.4.4.4.4.4.4.4.4.4.4.4.4.4.4.4.4.4.4.4.4.4.4.4.4.4.4.4.4.4.. : q 6 ",
"l J Z 0 4.4.4.4.4.4.4.4.4.4.4.4.4.4.4.4.4.4.4.4.4.4.4.4.4.4.4.4.4.4.4.4.4.4.4.4.4.4.4.& < 4.4.4.4.4.4.4.4.4.4.4.4.4.4.% y G K m ",
"3 g P O.J 4.4.4.> g N 4.4.4.4.4.4.4.4.4.4.4.4.4.4.4.4.4.4.4.4.4.4.4.4.4.4.4.4.4.4.4.4.4.4.4.4.4.4.4.4.4.y A h 6 * a A K X. .h 6 ",
"4.4.Z P J h M q ; q % + > < , 4.4.4.4.4.4.4.& t p 7 4.4.4.4.4.4.4.4.4.4.4.@ 1 s y & 4.4.4.4.4.4.7 < 1 , @ ; u ; u V m J [ F q 4.",
"4.4.0 h f 6 f 9 + 3 # 6 N D A y h 4.4.4.4.$ 9 T ] ~ s 4.4.4.4.4.4.4.4.4.> c / } T t % , 4.4.~ j f A ! N 6 * 6 # q f 9 h m 0 4.4.",
"4.4.4.3 # # - 3 O # 4.% q l f h ` >.#.4.U = , t A -.>.{ 4.4.4.2 2 > b T { >.-.A t < > U A #.>.{ v h v y * $ @ O : > # ; 3 3 4.4.",
"4.4.4.4.X X # O 4.4.4.4.* : ; q ' ;.` x y & 4.4.4.{ %.) Y T f , 1 f T Y ` %.` f 4.& & y B ] ,.[ t > : * 4.4.4.X $ # O . o 4.4.4.",
"4.4.4.4.4.  + 4.4.4.4.4.4.# + 6 D ` A 8 > & 4.4.4.h Y N y v y = = u v y n Y c 4.4.4.= : 9 Y ) R 9 + @ + 4.4.4.4.. % O 4.4.4.4.4.",
"4.4.4.4.4.4.4.4.4.4.4.4.4.4.+ 1 k j h > + & 4.4.4.4.1 , > 6 , % $ , 1 > , 1 , 4.4.4.& $ > h x l 2 + + 4.4.4.4.4.4.4.4.4.4.4.4.4.",
"4.4.4.4.4.4.4.4.4.4.4.4.4.4.O ; u f 9 ; O 4.4.4.4.4.4.+ & = & 4.$ @ > @ $ @ 4.4.4.4.4.+ ; 9 h f , + 4.4.4.4.4.4.4.4.4.4.4.4.4.4.",
"4.4.4.4.4.4.4.4.4.4.4.4.4.4.4.4.3 6 + 4.4.4.4.4.4.4.4.4.$ = 4.4.4.+ = $ 4.4.4.4.4.4.4.$ % # 6 > + X 4.4.4.4.4.4.4..   4.4.4.4.4.",
"4.4.4.4.4.4.4.4.4.4.4.4.4.4.4.4.4.4.4.4.4.4.4.4.4.4.4.4.4.4.4.4.4.4.4.4.4.4.4.4.4.4.4.4.4.O 4.4.4.4.4.4.4.4.4.4.4.. . 4.4.4.4.4.",
"4.4.4.4.4.4.4.4.4.4.4.4.4.4.4.4.4.4.4.4.4.4.4.4.4.4.4.4.4.4.4.4.4.4.4.4.4.4.4.4.4.4.4.4.4.4.4.4.4.4.4.4.4.4.4.4.4.4.4.4.4.4.4.4.",
"4.4.4.4.4.4.4.4.4.4.4.4.4.4.4.4.4.4.4.4.4.4.4.4.4.4.4.4.4.4.4.4.4.4.O O O 4.4.4.4.4.4.4.4.4.4.4.4.4.4.4.4.4.4.4.4.4.4.4.4.4.4.4.",
"4.4.4.4.4.4.4.4.4.4.4.4.4.4.4.# 4.4.4.4.4.4.+ t t O O 4.4.4.4.4.4.4.O O O O O t y + X 4.4.4.4.4.@ . 4.  . 4.4.4.4.4.4.4.4.4.4.4.",
"4.4.4.4.4.4.4.4.4.4.4.4.4 V Z w 0 4.4.4.4.O q D [ M X 4.4.4.4.4.4.4.4.4.4.X N [ D q O + 4.4.v q d F D 6 4.4.4.4.4.4.4.4.4.4.4.4.",
"4.4.4.4.4.4.4.4.4.4.4.4.o 8 d 8 h <. .h M + # 3 k 1. .A 4.4.6 l l 6 # s A  .1.z 6 * + M j  .<.m 8 f 8 + 4.4.4.4.4.4.4.4.4.4.4.4.",
"4.4.4.4.4.4.4.4.4.4.4.4.4.. X X f O.H k 6 . 4.4.0 K K j C f * 9 9 * g C l L K 8 4.4.. 6 k K :.f X o X 4.4.4.4.4.4.4.4.4.4.4.4.4.",
"4.4.4.4.4.4.4.4.4.4.4.4.4.4.X X d d g o X 4.4.4.4.8 w # 9 6 o : ; + 8 8 # w 9 # 4.4.& o # f d f X X 4.4.4.4.4.4.4.4.4.4.4.4.4.4.",
"4.4.4.4.4.4.4.4.4.4.4.4.4.4.  X d g d 3   4.4.4.4.4.X o # +   4.  . + * o X   4.4.4.4.X ; g k g X X 4.4.4.4.4.4.4.4.4.4.4.4.4.4.",
"4.4.4.4.4.4.4.4.4.4.4.4.4.4.4.  X 8 o +   4.4.4.4.4.4.. & . 4.4.4.4.. * . 4.4.4.4.4.4.  X o 8 o   X 4.4.4.4.4.4.4.4.4.4.4.4.4.4.",
"4.4.4.4.4.4.4.4.4.4.4.4.4.4.4.4.4.4.4.4.4.4.4.4.4.4.4.4.4.4.4.4.4.4.4.4.4.4.4.4.4.4.4.4.4.  4.4.4.4.4.4.4.4.4.4.4.4.4.4.4.4.4.4."
};
